<svg width="180" height="180" viewBox="0 0 170 170" fill="none" xmlns="http://www.w3.org/2000/svg">
<path d="M200 152.959H0V153.059H200V152.959Z" fill="#EBEBEB"/>
<path d="M95.3605 135.12H18.1208C16.862 135.12 15.8376 134.096 15.8376 132.837V24.2642C15.8376 23.0054 16.862 21.981 18.1208 21.981H95.3605C96.6189 21.981 97.6432 23.0054 97.6432 24.2642V132.837C97.6432 134.096 96.6189 135.12 95.3605 135.12ZM18.1208 22.0814C16.9168 22.0814 15.9376 23.0606 15.9376 24.2646V132.837C15.9376 134.041 16.9168 135.021 18.1208 135.021H95.3605C96.564 135.021 97.5433 134.041 97.5433 132.837V24.2642C97.5433 23.0606 96.564 22.081 95.3605 22.081L18.1208 22.0814Z" fill="#EBEBEB"/>
<path d="M181.879 135.12H104.64C103.381 135.12 102.357 134.096 102.357 132.837V24.2642C102.357 23.0054 103.381 21.981 104.64 21.981H181.879C183.138 21.981 184.162 23.0054 184.162 24.2642V132.837C184.162 134.096 183.138 135.12 181.879 135.12ZM104.64 22.0814C103.436 22.0814 102.457 23.0606 102.457 24.2646V132.837C102.457 134.041 103.436 135.021 104.64 135.021H181.879C183.083 135.021 184.062 134.041 184.062 132.837V24.2642C184.062 23.0606 183.083 22.081 181.879 22.081L104.64 22.0814Z" fill="#EBEBEB"/>
<path d="M200 152.959H0V153.059H200V152.959Z" fill="#EBEBEB"/>
<path d="M179.96 159.398H166.712V159.498H179.96V159.398Z" fill="#EBEBEB"/>
<path d="M132.488 160.483H129.011V160.583H132.488V160.483Z" fill="#EBEBEB"/>
<path d="M166.311 155.684H158.634V155.784H166.311V155.684Z" fill="#EBEBEB"/>
<path d="M38.2608 156.355H20.9836V156.455H38.2608V156.355Z" fill="#EBEBEB"/>
<path d="M90.0588 158.044H52.5884V158.144H90.0588V158.044Z" fill="#EBEBEB"/>
<path d="M61.7468 63.4713C66.6648 63.4845 80.4548 65.4857 80.4548 58.0785C80.4548 51.7845 73.7152 52.2477 73.7152 52.2477C73.7152 52.2477 73.91 46.7945 67.9052 46.0693C61.7468 45.3257 60.8172 51.2177 60.8172 51.2177C60.8172 51.2177 50.1272 47.4657 51.7536 56.8809C51.7536 56.8809 45.8276 55.8341 45.8276 60.0729C45.8276 64.8101 56.9824 63.4589 61.7468 63.4713Z" fill="#F0F0F0"/>
<path d="M55.5505 119.484C65.5329 119.514 93.5221 124.098 93.5221 107.131C93.5221 92.7153 79.8429 93.7761 79.8429 93.7761C79.8429 93.7761 80.2381 81.2861 68.0505 79.6253C55.5505 77.9217 53.6637 91.4177 53.6637 91.4177C53.6637 91.4177 31.9657 82.8241 35.2677 104.389C35.2677 104.389 23.2393 101.992 23.2393 111.7C23.2393 122.55 45.8809 119.454 55.5505 119.484Z" fill="#F5F5F5"/>
<path d="M92.8381 120.985C87.3157 121.002 71.8317 123.538 71.8317 114.152C71.8317 106.176 79.3993 106.764 79.3993 106.764C79.3993 106.764 79.1805 99.8541 85.9229 98.9353C92.8381 97.9929 93.8817 105.459 93.8817 105.459C93.8817 105.459 105.885 100.705 104.058 112.635C104.058 112.635 110.712 111.309 110.712 116.68C110.713 122.681 98.1877 120.969 92.8381 120.985Z" fill="#F0F0F0"/>
<path d="M123.659 81.6644C129.167 81.6784 144.61 83.79 144.61 75.9732C144.61 69.3312 137.062 69.82 137.062 69.82C137.062 69.82 137.28 64.0656 130.555 63.3004C123.658 62.5156 122.617 68.7336 122.617 68.7336C122.617 68.7336 110.645 64.7744 112.467 74.71C112.467 74.71 105.83 73.6056 105.83 78.0784C105.83 83.0768 118.323 81.6508 123.659 81.6644Z" fill="#F0F0F0"/>
<path d="M107.236 152.913L115.285 100.731L139.222 70.5112L147.382 36.0952C147.382 36.0952 167.164 55.2104 167.712 55.712C168.261 56.2136 172.616 107.809 173.22 108.596C173.825 109.384 179.508 118.381 179.508 118.381L182.153 152.756L107.236 152.913Z" fill="#FAFAFA"/>
<path d="M107.236 152.913L118.707 107.823L134.962 92.3295L138.004 111.941L142.098 89.6327L146.747 97.2387L145.738 71.0147L146.545 62.6247L149.272 68.1939L147.382 36.0947L161.173 36.4135L164.043 51.5651L167.712 55.7115L173.22 108.596L179.508 118.381L182.152 152.756L107.236 152.913Z" fill="#EBEBEB"/>
<path d="M147.742 36.2686L155.934 62.7758L160.815 66.6542C160.815 66.6542 163.39 77.4278 163.36 76.739C163.331 76.0502 163.065 63.9802 163.065 63.9802L164.329 54.1314L161.139 36.5878L147.742 36.2686Z" fill="#F5F5F5"/>
<path d="M173.22 108.596L175.132 117.507L179.508 118.38L173.22 108.596Z" fill="#F5F5F5"/>
<path d="M142.426 134.976C151.175 135.002 175.706 139.02 175.706 124.15C175.706 111.515 163.716 112.445 163.716 112.445C163.716 112.445 164.063 101.498 153.381 100.042C142.426 98.5496 140.772 110.378 140.772 110.378C140.772 110.378 121.755 102.846 124.649 121.747C124.649 121.747 114.107 119.646 114.107 128.155C114.106 137.663 133.95 134.95 142.426 134.976Z" fill="#F5F5F5"/>
<path d="M44.3557 156.355H41.8225V156.455H44.3557V156.355Z" fill="#EBEBEB"/>
<path d="M100.856 170.806C143.688 170.806 178.411 168.778 178.411 166.277C178.411 163.775 143.688 161.748 100.856 161.748C58.0229 161.748 23.3 163.775 23.3 166.277C23.3 168.778 58.0229 170.806 100.856 170.806Z" fill="#F5F5F5"/>
<path d="M161.34 38.0321C161.34 41.8961 158.208 45.0281 154.344 45.0281C154.188 45.0281 154.032 45.0241 153.876 45.0121C150.236 44.7721 147.352 41.7401 147.352 38.0321C147.352 34.3241 150.236 31.2921 153.876 31.0521C154.032 31.0401 154.188 31.0361 154.344 31.0361C158.208 31.0361 161.34 34.1681 161.34 38.0321Z" fill="#BCD7B6"/>
<path opacity="0.2" d="M160.404 38.0322C160.404 41.7402 157.52 44.7722 153.876 45.0122C150.236 44.7722 147.352 41.7402 147.352 38.0322C147.352 34.3242 150.236 31.2922 153.876 31.0522C157.52 31.2922 160.404 34.3242 160.404 38.0322Z" fill="white"/>
<path opacity="0.4" d="M158.701 40.0322C159.807 37.3616 158.539 34.2997 155.868 33.1935C153.198 32.0872 150.136 33.3554 149.03 36.0261C147.923 38.6968 149.192 41.7586 151.862 42.8649C154.533 43.9711 157.595 42.7029 158.701 40.0322Z" fill="white"/>
<g opacity="0.7">
<path d="M156.268 39.1455C156.471 40.3027 155.676 41.0767 154.244 41.1983L154.22 42.1555H153.35L153.374 41.1983C152.533 41.1203 151.757 40.8595 151.255 40.5287L151.649 39.4499C152.17 39.7895 152.791 40.0067 153.402 40.0679L153.44 38.5979C152.588 38.3543 151.644 38.0327 151.46 36.9795C151.258 35.8227 152.069 35.0399 153.53 34.9347L153.554 33.9775H154.424L154.401 34.9435C155.03 35.0039 155.626 35.1787 156.089 35.4391L155.747 36.5179C155.329 36.2659 154.85 36.1175 154.372 36.0655L154.335 37.5967C155.177 37.8315 156.093 38.1447 156.268 39.1455ZM153.467 37.3531L153.5 36.1003C153.02 36.1963 152.789 36.4655 152.839 36.7963C152.886 37.0659 153.13 37.2223 153.467 37.3531ZM154.898 39.3715C154.854 39.1195 154.626 38.9623 154.302 38.8495L154.276 40.0411C154.729 39.9455 154.956 39.7023 154.898 39.3715Z" fill="white"/>
</g>
<path d="M119.546 102.284H95.8781V166.297H119.546V102.284Z" fill="#40816C"/>
<path opacity="0.2" d="M102.56 102.222H95.8721V166.309H102.56V102.222Z" fill="black"/>
<path d="M95.8465 127.884H72.1785V166.296H95.8465V127.884Z" fill="#40816C"/>
<path opacity="0.2" d="M79.2905 127.884H72.1785V166.256H79.2905V127.884Z" fill="black"/>
<path d="M72.1601 136.04H48.4921V166.296H72.1601V136.04Z" fill="#40816C"/>
<path opacity="0.2" d="M55.5321 136.04H48.4921V166.256H55.5321V136.04Z" fill="black"/>
<path d="M48.4848 144.198H24.8176V166.297H48.4848V144.198Z" fill="#40816C"/>
<path opacity="0.2" d="M31.5065 144.176H24.8185V166.256H31.5065V144.176Z" fill="black"/>
<path d="M89.167 52.8322C88.043 54.191 86.8854 55.5222 85.727 56.8514L84.8514 57.843L84.0658 58.719C83.7426 59.1002 83.5298 59.5786 83.4542 60.0998L83.1906 62.6818C83.1022 63.5578 83.017 64.4334 82.9142 65.309C82.721 67.0598 82.5198 68.8102 82.285 70.559C82.2026 71.1722 81.6386 71.6022 81.0258 71.5198C80.485 71.447 80.087 70.9994 80.057 70.4742C79.9554 68.7142 79.8886 66.9558 79.829 65.1982C79.793 64.319 79.775 63.4406 79.7534 62.5622L79.6938 59.8814C79.7102 58.6482 80.1175 57.4082 80.8227 56.3674L81.6934 55.1962L82.4826 54.1474C83.5438 52.7558 84.6062 51.367 85.7018 50.005C86.4762 49.0426 87.8838 48.8902 88.8462 49.6646C89.8086 50.439 89.961 51.8466 89.1866 52.809C89.1822 52.8134 89.171 52.8274 89.167 52.8322Z" fill="#BCD7B6"/>
<path d="M79.7795 70.6763L78.3175 73.1583L81.6831 73.4999L82.2755 70.9799C82.3455 70.6815 82.1539 70.3803 81.8515 70.3283C81.2935 70.2327 80.4207 70.1931 79.7795 70.6763Z" fill="#CB7A63"/>
<path d="M78.3175 73.1582L78.4711 74.0362C78.5467 74.4702 78.9243 74.7862 79.3647 74.785L80.4607 74.7822C80.7947 74.7814 81.1007 74.5966 81.2575 74.3018L81.6831 73.4998L78.3175 73.1582Z" fill="#CB7A63"/>
<path d="M79.5415 68.8159L82.7811 68.9267L82.5723 70.8619L79.8359 70.6507L79.5415 68.8159Z" fill="#BCD7B6"/>
<path opacity="0.3" d="M79.5415 68.8159L82.7811 68.9267L82.5723 70.8619L79.8359 70.6507L79.5415 68.8159Z" fill="white"/>
<path d="M82.8088 89.1345L82.2763 89.9345L81.8692 89.1081L82.8392 76.5489C82.9932 74.5521 82.32 72.9117 79.8359 72.8513C77.5127 72.7949 76.1028 74.3821 75.9408 76.3753L74.9236 88.9117L74.3672 89.7093L73.9875 88.8853L75.0112 76.3517C75.2004 74.0345 76.2287 72.1753 79.8823 72.2633C83.5423 72.3517 83.9503 74.2497 83.7719 76.5721L82.8088 89.1345Z" fill="#263238"/>
<path d="M72.514 80.6629L71.8716 80.6597C70.534 80.6533 69.4004 81.6433 69.2268 82.9697L68.0424 92.0205L72.2096 92.1689L72.514 80.6629Z" fill="#263238"/>
<path opacity="0.2" d="M72.514 80.6629L71.8716 80.6597C70.534 80.6533 69.4004 81.6433 69.2268 82.9697L68.0424 92.0205L72.2096 92.1689L72.514 80.6629Z" fill="white"/>
<path d="M84.2799 89.2404L83.3383 89.214L83.4299 76.6548C83.4443 74.658 82.6563 73.0176 80.1683 72.9572C77.8411 72.9008 76.5419 74.488 76.5195 76.4812L76.3787 89.0176L75.4407 88.9912L75.5879 76.4576C75.6151 74.1404 76.5135 72.2812 80.1731 72.3692C83.8395 72.4576 84.3799 74.3556 84.3643 76.678L84.2799 89.2404Z" fill="#263238"/>
<path d="M88.6963 92.6585L70.1743 92.1089L70.3531 82.7721C70.3707 81.5761 71.3379 80.6325 72.5139 80.6633L85.9991 81.0161C87.5223 81.0561 88.7523 82.3397 88.7459 83.8857L88.6963 92.6585Z" fill="#263238"/>
<path opacity="0.4" d="M86.6439 92.5977L72.2099 92.1693C71.0851 92.1361 70.1879 91.1761 70.2047 90.0269L70.3531 82.7721C70.3707 81.5761 71.3379 80.6325 72.5139 80.6633L85.9991 81.0161C87.5223 81.0561 88.7523 82.3397 88.7459 83.8857L88.7051 90.5669C88.7003 91.7213 87.7771 92.6313 86.6439 92.5977Z" fill="white"/>
<g opacity="0.3">
<path d="M84.2799 89.2403L83.8035 90.0403L83.3387 89.2139L83.4303 76.6547C83.4447 74.6579 82.6567 73.0175 80.1687 72.9571C77.8415 72.9007 76.5423 74.4879 76.5199 76.4811L76.3791 89.0175L75.8787 89.8151L75.4415 88.9907L75.5887 76.4571C75.6159 74.1399 76.5143 72.2807 80.1739 72.3687C83.8403 72.4571 84.3807 74.3551 84.3651 76.6775L84.2799 89.2403Z" fill="white"/>
</g>
<path d="M76.6975 84.173L75.1539 84.131L75.1607 83.5498L76.7039 83.5914L76.6975 84.173Z" fill="#263238"/>
<path d="M76.656 87.9417L75.1088 87.8985L75.116 87.3149L76.6624 87.3577L76.656 87.9417Z" fill="#263238"/>
<path d="M84.6303 84.3871L83.0803 84.3455L83.0847 83.7627L84.6339 83.8043L84.6303 84.3871Z" fill="#263238"/>
<path d="M84.6056 88.1636L83.0524 88.1204L83.0568 87.5352L84.6092 87.5784L84.6056 88.1636Z" fill="#263238"/>
<path d="M81.6771 84.6389L78.3627 84.5493L78.3751 83.3057L81.6871 83.3945L81.6771 84.6389Z" fill="white"/>
<path d="M95.9763 38.7968C96.1039 38.7724 96.2396 38.9052 96.2812 39.098C96.3224 39.2908 96.2556 39.4716 96.1284 39.496C96.0008 39.5204 95.8651 39.3876 95.8239 39.1948C95.7719 38.9956 95.8487 38.8212 95.9763 38.7968Z" fill="#263238"/>
<path d="M95.9991 38.9582C96.1295 38.8974 96.2491 38.7614 96.3015 38.6274C96.1899 38.7318 96.0367 38.7898 95.8839 38.7862C95.9423 38.819 95.9959 38.891 95.9991 38.9582Z" fill="#263238"/>
<path d="M96.2544 40.9156C96.5904 40.9296 96.9148 40.794 97.1412 40.5456C96.6512 40.12 96.222 39.63 95.8644 39.0884L96.2544 40.9156Z" fill="#B74D3C"/>
<path d="M94.9051 38.4811C95.0903 38.2487 95.3767 38.1199 95.6735 38.1355C95.6859 38.1395 95.6987 38.1415 95.7119 38.1411C95.7771 38.1399 95.8287 38.0859 95.8275 38.0207C95.8263 37.9555 95.7723 37.9039 95.7075 37.9051C95.3363 37.8751 94.9735 38.0263 94.7339 38.3115C94.7155 38.3327 94.7059 38.3599 94.7059 38.3883C94.7059 38.4535 94.7587 38.5063 94.8239 38.5063C94.8531 38.5087 94.8819 38.4995 94.9051 38.4811Z" fill="#263238"/>
<path d="M93.6872 50.0412C90.3596 50.0768 89.8496 48.2656 89.8496 48.2656C90.838 47.2952 90.8872 45.5192 90.6772 43.936C90.932 44.294 91.2496 44.6068 91.6656 44.884C92.4616 45.4072 94.1884 44.5664 94.1884 44.5664C94.1928 44.5664 94.1884 44.8616 94.2108 45.2864C94.2644 46.324 94.4924 48.1444 95.4364 48.4264C95.4364 48.4264 97.3552 50.0012 93.6872 50.0412Z" fill="#CB7A63"/>
<path d="M94.2372 44.8362C94.202 44.989 94.1664 45.1422 94.1452 45.3042C94.1316 45.3134 94.1176 45.3182 94.1036 45.3186C93.3244 45.5122 92.4628 45.4058 91.6668 44.8826C91.2476 44.605 90.93 44.2942 90.6764 43.9362C90.626 43.5346 90.5524 43.1422 90.4788 42.7822L94.1024 44.7638L94.2372 44.8362Z" fill="#CB7A63"/>
<path d="M96.6216 42.1196C96.598 43.35 95.9248 44.3884 94.9832 44.9532H94.9784C94.974 44.958 94.9692 44.958 94.9644 44.958C94.7116 45.118 94.4356 45.232 94.1452 45.3044C94.1316 45.3136 94.1176 45.3184 94.1036 45.3188C93.3244 45.5124 92.4628 45.406 91.6668 44.8828C91.2476 44.6052 90.93 44.2944 90.6764 43.9364C90.024 43.0416 89.752 41.8472 89.2856 40.1688C89.1416 39.6756 89.1128 39.1536 89.2044 38.6484C89.5316 36.8416 91.262 35.6436 93.0644 35.9708C95.5936 36.42 96.6712 39.8716 96.6216 42.1196Z" fill="#CB7A63"/>
<path opacity="0.2" d="M94.8012 45.0182C94.5684 45.1658 94.4524 45.2238 94.2108 45.2866C94.1884 44.8618 94.1932 44.5666 94.1884 44.5666C94.2108 44.1954 94.2376 43.8242 94.2376 43.8242C94.2376 43.8374 94.6268 45.0182 94.8012 45.0182Z" fill="black"/>
<path d="M95.7476 37.5814C95.4768 38.0118 94.624 38.3758 94.6528 38.2758C94.7996 37.9186 94.7724 37.233 94.3296 37.3934C94.452 37.6666 94.8192 39.7206 94.6528 39.9698C94.5616 40.1062 94.4756 41.7494 93.7759 43.1982C93.2179 44.3542 93.2179 44.7126 93.2179 44.7126L90.9463 45.151C90.0959 45.0446 89.304 43.9582 89.234 43.8378C88.9372 43.327 88.0295 42.6562 87.5575 42.3014C87.3535 42.1478 87.1939 41.9218 87.1075 41.6794C86.9519 41.2434 87.27 39.6722 87.3392 38.9334C87.4388 37.8706 87.9967 36.8874 89.5383 36.2562C90.4915 35.8658 91.2935 35.0094 92.2659 34.6706C93.2387 34.3318 94.3955 34.347 95.2171 34.9682C95.6211 35.2738 96.4264 36.5026 95.7476 37.5814Z" fill="#263238"/>
<path d="M94.5608 39.0772C95.2608 39.2824 95.6256 40.3136 95.6556 40.9688C95.6896 41.6924 95.2064 42.1496 94.5756 41.6652C94.1004 41.292 93.7612 40.7732 93.6096 40.1884C93.4384 39.4792 93.8608 38.8716 94.5608 39.0772Z" fill="#CB7A63"/>
<path d="M95.4023 41.4872C95.4023 41.656 95.2655 41.7928 95.0967 41.7928C94.9279 41.7928 94.7911 41.656 94.7911 41.4872C94.7911 41.3184 94.9279 41.1816 95.0967 41.1816C95.2655 41.1816 95.4023 41.3184 95.4023 41.4872Z" fill="#BCD7B6"/>
<path opacity="0.3" d="M95.4023 41.4872C95.4023 41.656 95.2655 41.7928 95.0967 41.7928C94.9279 41.7928 94.7911 41.656 94.7911 41.4872C94.7911 41.3184 94.9279 41.1816 95.0967 41.1816C95.2655 41.1816 95.4023 41.3184 95.4023 41.4872Z" fill="white"/>
<path d="M88.8943 49.4651C88.8943 49.4651 89.4115 47.8695 90.1911 47.3655C90.9711 46.8615 94.3947 47.3843 94.9311 47.5943C95.4675 47.8043 96.0091 49.0407 96.0091 49.0407L88.8943 49.4651Z" fill="#BCD7B6"/>
<path opacity="0.3" d="M88.8943 49.4651C88.8943 49.4651 89.4115 47.8695 90.1911 47.3655C90.9711 46.8615 94.3947 47.3843 94.9311 47.5943C95.4675 47.8043 96.0091 49.0407 96.0091 49.0407L88.8943 49.4651Z" fill="white"/>
<path d="M96.7123 48.7838C96.1795 48.6962 96.0327 48.6158 95.4223 48.5678C93.5855 48.4814 91.7447 48.5014 89.9103 48.6274C89.2403 48.6754 88.5959 48.805 87.9563 48.9582C86.6423 49.2738 85.7563 50.4982 85.8539 51.8362C86.1267 55.581 87.2335 57.7782 87.3967 60.2434C87.7219 65.155 86.9383 68.5986 86.8051 69.745L89.3231 70.1274C93.8207 70.0206 96.8067 69.0538 99.2819 68.001C99.2819 68.001 98.6331 62.063 99.2603 59.9234C100.974 54.0778 99.8615 53.153 99.5235 51.4794C99.2419 50.0882 98.1227 49.015 96.7123 48.7838Z" fill="#BCD7B6"/>
<path opacity="0.1" d="M99.2603 59.9215C99.0547 60.6191 98.9875 61.7195 98.9875 62.8823C98.9875 65.2975 99.2827 67.9991 99.2827 67.9991C96.8091 69.0547 93.8215 70.0207 89.3219 70.1279L86.8039 69.7431C86.9379 68.5979 87.7207 65.1543 87.3987 60.2431C87.2331 57.7787 86.1287 55.5827 85.8555 51.8343C85.7571 50.4971 86.6427 49.2715 87.9575 48.9583C88.5971 48.8019 89.2411 48.6767 89.9119 48.6275C91.7459 48.5023 93.5839 48.4799 95.4223 48.5647C96.0307 48.6139 96.1783 48.6943 96.7103 48.7839C98.1235 49.0163 99.2419 50.0855 99.5235 51.4811C99.6443 52.0803 99.8679 52.5859 100.02 53.2567C100.207 54.0707 100.297 55.1307 99.9839 56.9063C99.8415 57.7387 99.6091 58.7271 99.2603 59.9215Z" fill="white"/>
<path d="M97.4359 48.6024C98.3551 48.732 99.2659 48.9156 100.181 49.07C101.093 49.246 102.004 49.4268 102.913 49.6224L102.584 49.5964C102.989 49.6144 103.346 49.646 103.571 49.66C103.68 49.668 103.757 49.666 103.728 49.6824C103.723 49.6916 103.669 49.7084 103.607 49.7484C103.53 49.79 103.436 49.8576 103.335 49.9616C103.125 50.1716 103.041 50.4528 103.047 50.536C103.045 50.6268 103.074 50.6056 103.079 50.5352C103.095 50.3908 103.064 50.1148 103.004 49.8308L103.046 49.9488C102.585 48.6176 102.147 47.2772 101.745 45.922C101.356 44.5624 100.982 43.1968 100.717 41.7888C100.615 41.2484 100.97 40.7272 101.511 40.6252C101.925 40.5472 102.327 40.7392 102.539 41.0744C103.301 42.288 103.954 43.544 104.592 44.806C105.219 46.0728 105.808 47.354 106.374 48.644L106.415 48.762C106.57 49.17 106.721 49.5992 106.812 50.1764C106.854 50.466 106.883 50.8108 106.817 51.2588C106.756 51.6968 106.516 52.3244 106.043 52.7856C105.812 53.0172 105.562 53.18 105.324 53.3048C105.097 53.4188 104.873 53.4996 104.691 53.5492C104.31 53.6544 104.024 53.6852 103.771 53.7112C103.272 53.7584 102.903 53.7604 102.585 53.7792L102.533 53.7824L102.255 53.7532C101.331 53.6564 100.408 53.5452 99.4867 53.4288C98.5687 53.2912 97.6459 53.1824 96.7319 53.0196C95.5159 52.8032 94.7055 51.6416 94.9223 50.4252C95.1339 49.2372 96.2511 48.4372 97.4359 48.6024Z" fill="#BCD7B6"/>
<g opacity="0.1">
<path d="M97.4359 48.6024C98.3551 48.732 99.2659 48.9156 100.181 49.07C101.093 49.246 102.004 49.4268 102.913 49.6224L102.584 49.5964C102.989 49.6144 103.346 49.646 103.571 49.66C103.68 49.668 103.757 49.666 103.728 49.6824C103.723 49.6916 103.669 49.7084 103.607 49.7484C103.53 49.79 103.436 49.8576 103.335 49.9616C103.125 50.1716 103.041 50.4528 103.047 50.536C103.045 50.6268 103.074 50.6056 103.079 50.5352C103.095 50.3908 103.064 50.1148 103.004 49.8308L103.046 49.9488C102.585 48.6176 102.147 47.2772 101.745 45.922C101.356 44.5624 100.982 43.1968 100.717 41.7888C100.615 41.2484 100.97 40.7272 101.511 40.6252C101.925 40.5472 102.327 40.7392 102.539 41.0744C103.301 42.288 103.954 43.544 104.592 44.806C105.219 46.0728 105.808 47.354 106.374 48.644L106.415 48.762C106.57 49.17 106.721 49.5992 106.812 50.1764C106.854 50.466 106.883 50.8108 106.817 51.2588C106.756 51.6968 106.516 52.3244 106.043 52.7856C105.812 53.0172 105.562 53.18 105.324 53.3048C105.097 53.4188 104.873 53.4996 104.691 53.5492C104.31 53.6544 104.024 53.6852 103.771 53.7112C103.272 53.7584 102.903 53.7604 102.585 53.7792L102.533 53.7824L102.255 53.7532C101.331 53.6564 100.408 53.5452 99.4867 53.4288C98.5687 53.2912 97.6459 53.1824 96.7319 53.0196C95.5159 52.8032 94.7055 51.6416 94.9223 50.4252C95.1339 49.2372 96.2511 48.4372 97.4359 48.6024Z" fill="white"/>
</g>
<path d="M113.977 39.9911L125.969 39.6235L125.785 35.8667L113.817 36.6547L113.977 39.9911Z" fill="#BCD7B6"/>
<path d="M104.913 40.1351L114.61 39.8231L114.463 36.7427L104.782 37.3671L104.913 40.1351Z" fill="#BCD7B6"/>
<path d="M113.33 39.9017L113.965 39.9689L113.808 36.6777L113.182 36.8057L113.33 39.9017Z" fill="#263238"/>
<path opacity="0.2" d="M113.33 39.9017L113.965 39.9689L113.808 36.6777L113.182 36.8057L113.33 39.9017Z" fill="black"/>
<path d="M113.966 39.9911L114.617 39.9711L114.456 36.6123L113.807 36.6551L113.966 39.9911Z" fill="#263238"/>
<path d="M103.407 39.6797L104.369 40.1265L104.242 37.4277L103.326 37.9649L103.407 39.6797Z" fill="#263238"/>
<path d="M98.479 39.646L101.331 39.4976L101.271 38.2344L98.421 38.4048L98.479 39.646Z" fill="#263238"/>
<path opacity="0.2" d="M98.479 39.646L101.331 39.4976L101.271 38.2344L98.421 38.4048L98.479 39.646Z" fill="black"/>
<path d="M100.941 39.7528L104.113 39.6308L104.03 37.8628L100.861 38.0504L100.941 39.7528Z" fill="#263238"/>
<path opacity="0.2" d="M103.407 39.6797L104.369 40.1265L104.242 37.4277L103.326 37.9649L103.407 39.6797Z" fill="black"/>
<path d="M104.387 40.1519L104.913 40.1347L104.782 37.3667L104.257 37.4007L104.387 40.1519Z" fill="#263238"/>
<path d="M125.561 39.6358L127.442 39.5686L127.257 35.7974L125.378 35.8934L125.561 39.6358Z" fill="#263238"/>
<path d="M126.395 39.9025L128.795 39.8353L128.855 39.6693C129.368 38.2465 129.266 36.6745 128.573 35.3301L126.179 35.4957L126.231 35.6213C126.8 36.9821 126.859 38.5025 126.395 39.9025Z" fill="#BCD7B6"/>
<g opacity="0.4">
<path d="M123.839 36.2831L124.81 36.2231L124.829 36.6371L123.843 36.6939C123.82 36.5587 123.828 36.4203 123.839 36.2831Z" fill="white"/>
<path d="M123.252 36.3291C123.241 36.4659 123.235 36.6031 123.256 36.7375L114.838 37.2143L114.818 36.8403L123.252 36.3291Z" fill="white"/>
</g>
<g opacity="0.4">
<path d="M104.987 37.5852L105.005 37.9208L112.914 37.4512L112.897 37.084L104.987 37.5852Z" fill="white"/>
</g>
<g opacity="0.4">
<path d="M126.391 35.6252L126.415 36.0444L128.291 35.9208L128.27 35.4932L126.391 35.6252Z" fill="white"/>
</g>
<path opacity="0.3" d="M128.554 39.2812C128.542 39.4244 128.534 39.568 128.557 39.7096L126.614 39.776L126.591 39.3564L128.554 39.2812Z" fill="black"/>
<path opacity="0.3" d="M125.074 39.0474C125.063 39.1862 125.057 39.3254 125.078 39.4622L114.782 39.8302L114.761 39.4566L125.074 39.0474Z" fill="black"/>
<path opacity="0.3" d="M112.819 39.4092C112.811 39.5316 112.807 39.6552 112.824 39.7764L105.173 40.0452L105.156 39.7088L112.819 39.4092Z" fill="black"/>
<path d="M97.8378 38.453L97.8626 39.661C97.8666 39.8662 98.0526 40.0298 98.2786 40.0258L99.259 40.009L99.2182 38.0298L98.2382 38.0658C98.0126 38.0746 97.8338 38.2474 97.8378 38.453Z" fill="#BCD7B6"/>
<path d="M102.906 41.8039L103.278 39.5527C103.294 39.4591 103.297 39.3639 103.289 39.2699L103.182 38.0767C103.164 37.9223 103.056 37.7707 102.888 37.7191L101.089 37.6983C100.852 37.6235 100.591 37.7371 100.513 37.9483L100.19 39.4231C100.165 39.5335 100.168 39.6483 100.197 39.7575L100.73 41.7883C100.782 41.9579 100.938 42.0899 101.132 42.1271L102.307 42.1375C102.584 42.1907 102.849 42.0431 102.906 41.8039Z" fill="#CE7A63"/>
<path d="M103.963 42.7524L100.905 43.828L100.396 41.9492L103.022 41.1504L103.963 42.7524Z" fill="#BCD7B6"/>
<path opacity="0.3" d="M103.963 42.7524L100.905 43.828L100.396 41.9492L103.022 41.1504L103.963 42.7524Z" fill="white"/>
<path opacity="0.2" d="M99.9847 56.9065L97.6411 52.4829L100.021 53.2565C100.208 54.0709 100.298 55.1309 99.9847 56.9065Z" fill="black"/>
<path d="M112.067 93.6302L111.582 99.6386L114.317 99.6906L115.067 93.501L112.067 93.6302Z" fill="#CE7A63"/>
<path d="M114.75 98.8696L111.63 98.9328C111.513 98.9352 111.412 99.0244 111.387 99.1484L110.85 101.884C110.801 102.127 110.944 102.364 111.169 102.415C111.198 102.422 111.227 102.425 111.257 102.425C112.381 102.381 113.38 102.295 114.781 102.268C116.433 102.236 116.016 102.456 117.958 102.446C119.129 102.439 119.329 101.007 118.832 100.947C116.558 100.686 116.315 99.9544 115.43 99.0992C115.238 98.9356 114.996 98.854 114.75 98.8696Z" fill="#263238"/>
<path d="M82.2035 119.378L81.0975 124.897L84.0379 125.795L85.4543 120.158L82.2035 119.378Z" fill="#CE7A63"/>
<path d="M97.9359 68.2417C97.9359 68.2417 93.7507 92.6673 91.4775 99.8557C89.8591 104.974 85.5175 121.72 85.5175 121.72L81.5791 120.846C81.5791 120.846 81.1387 109.448 83.3291 103.565C84.0763 101.557 85.0515 99.7465 85.3155 98.5021C86.4435 93.1857 84.1187 83.5409 85.1463 76.3473C85.7035 72.4481 86.8935 69.6673 86.8935 69.6673L97.9359 68.2417Z" fill="#263238"/>
<path d="M91.4775 99.8554C89.8591 104.974 85.5175 121.719 85.5175 121.719L81.5791 120.846C81.5791 120.846 81.1387 109.448 83.3291 103.564C84.0763 101.557 85.0515 99.7462 85.3155 98.5018C86.4435 93.1854 84.1187 83.5406 85.1463 76.347C85.7035 72.4478 86.8935 69.667 86.8935 69.667" fill="#263238"/>
<path opacity="0.2" d="M92.8043 75.7915L94.9111 84.0643L96.4523 76.1511L92.8043 75.7915Z" fill="black"/>
<path d="M115.259 96.512L111.411 96.636C111.411 96.636 111.695 91.6 111.695 84.256C111.695 83.124 111.871 82.008 112.119 81.008C112.667 78.764 113.555 77.092 113.555 77.092C113.555 77.092 113.143 77.116 112.439 77.148C110.263 77.26 96.7743 77.9568 96.5103 77.9368C96.3103 77.9168 95.0847 78.0792 92.8871 77.008C88.8039 75.0172 88.7631 69.428 88.7631 69.428L99.2791 68C99.2791 68.008 99.4511 68.032 101.983 68.076C109.659 68.208 119.092 68.5052 120.748 71.1404C123.076 74.8476 115.259 96.512 115.259 96.512Z" fill="#263238"/>
<path d="M84.1851 124.366L80.9583 124.41C80.8367 124.412 80.7371 124.502 80.7187 124.626L80.3171 127.384C80.2799 127.628 80.4411 127.869 80.6771 127.922C80.7075 127.929 80.7379 127.932 80.7687 127.932C81.9303 127.896 82.9607 127.815 84.4091 127.797C86.1183 127.775 85.6987 127.995 87.7099 127.998C88.9215 127.998 89.0479 126.553 88.5299 126.489C86.1599 126.211 85.8667 125.471 84.9023 124.602C84.6943 124.436 84.4391 124.352 84.1851 124.366Z" fill="#263238"/>
<path opacity="0.2" d="M112.119 81.0076C112.667 78.7636 113.555 77.0916 113.555 77.0916C113.555 77.0916 113.143 77.1156 112.439 77.1476C112.407 77.1356 112.375 77.1276 112.335 77.1276L115.14 76.8916L112.119 81.0076Z" fill="black"/>
<path d="M38.6168 51.1028C41.3266 51.1028 43.5232 48.9062 43.5232 46.1964C43.5232 43.4867 41.3266 41.29 38.6168 41.29C35.9071 41.29 33.7104 43.4867 33.7104 46.1964C33.7104 48.9062 35.9071 51.1028 38.6168 51.1028Z" fill="#BCD7B6"/>
<path opacity="0.6" d="M38.6168 51.1028C41.3266 51.1028 43.5232 48.9062 43.5232 46.1964C43.5232 43.4867 41.3266 41.29 38.6168 41.29C35.9071 41.29 33.7104 43.4867 33.7104 46.1964C33.7104 48.9062 35.9071 51.1028 38.6168 51.1028Z" fill="white"/>
<path d="M38.6256 39.4195C38.2224 39.4195 37.896 39.0931 37.896 38.6899V35.4679C37.896 35.0647 38.2224 34.7383 38.6256 34.7383C39.0288 34.7383 39.3552 35.0647 39.3552 35.4679V38.6899C39.3552 39.0927 39.0288 39.4195 38.6256 39.4195Z" fill="#BCD7B6"/>
<path d="M38.6256 57.5796C38.2224 57.5796 37.896 57.2532 37.896 56.85V53.628C37.896 53.2248 38.2224 52.8984 38.6256 52.8984C39.0288 52.8984 39.3552 53.2248 39.3552 53.628V56.85C39.3552 57.2528 39.0288 57.5796 38.6256 57.5796Z" fill="#BCD7B6"/>
<path d="M33.344 41.6073C33.1572 41.6073 32.9704 41.5361 32.828 41.3937L31.4352 40.0009C31.15 39.7157 31.15 39.2541 31.4352 38.9693C31.7204 38.6841 32.1824 38.6841 32.4668 38.9693L33.8596 40.3621C34.1444 40.6473 34.1444 41.1089 33.8596 41.3937C33.7176 41.5361 33.5308 41.6073 33.344 41.6073Z" fill="#BCD7B6"/>
<path d="M45.2057 53.4684C45.0189 53.4684 44.8325 53.3972 44.6897 53.2548L43.3913 51.9564C43.1061 51.6716 43.1061 51.2096 43.3913 50.9248C43.6761 50.6396 44.1381 50.6396 44.4229 50.9248L45.7213 52.2232C46.0065 52.508 46.0065 52.97 45.7213 53.2548C45.5789 53.3972 45.3921 53.4684 45.2057 53.4684Z" fill="#BCD7B6"/>
<path d="M31.1564 46.8889H27.9344C27.5312 46.8889 27.2048 46.5625 27.2048 46.1593C27.2048 45.7561 27.5312 45.4297 27.9344 45.4297H31.1564C31.5596 45.4297 31.886 45.7561 31.886 46.1593C31.886 46.5625 31.5596 46.8889 31.1564 46.8889Z" fill="#BCD7B6"/>
<path d="M49.3168 46.8889H46.0948C45.6916 46.8889 45.3652 46.5625 45.3652 46.1593C45.3652 45.7561 45.6916 45.4297 46.0948 45.4297H49.3168C49.7196 45.4297 50.0464 45.7561 50.0464 46.1593C50.0464 46.5625 49.72 46.8889 49.3168 46.8889Z" fill="#BCD7B6"/>
<path d="M32.116 53.398C31.9292 53.398 31.7428 53.3268 31.6 53.1844C31.3148 52.8996 31.3148 52.4376 31.6 52.1528L32.828 50.9248C33.1124 50.6396 33.5748 50.6396 33.8596 50.9248C34.1444 51.2096 34.1444 51.6716 33.8596 51.9564L32.6316 53.1844C32.4896 53.3268 32.3028 53.398 32.116 53.398Z" fill="#BCD7B6"/>
<path d="M43.9071 41.607C43.7203 41.607 43.5339 41.5358 43.3911 41.3934C43.1059 41.1086 43.1059 40.6466 43.3911 40.3618L44.7079 39.045C44.9931 38.7598 45.4547 38.7598 45.7395 39.045C46.0247 39.3298 46.0247 39.7918 45.7395 40.0766L44.4227 41.3934C44.2803 41.5358 44.0935 41.607 43.9071 41.607Z" fill="#BCD7B6"/>
<g opacity="0.6">
<path d="M38.6256 39.4195C38.2224 39.4195 37.896 39.0931 37.896 38.6899V35.4679C37.896 35.0647 38.2224 34.7383 38.6256 34.7383C39.0288 34.7383 39.3552 35.0647 39.3552 35.4679V38.6899C39.3552 39.0927 39.0288 39.4195 38.6256 39.4195Z" fill="white"/>
<path d="M38.6256 57.5796C38.2224 57.5796 37.896 57.2532 37.896 56.85V53.628C37.896 53.2248 38.2224 52.8984 38.6256 52.8984C39.0288 52.8984 39.3552 53.2248 39.3552 53.628V56.85C39.3552 57.2528 39.0288 57.5796 38.6256 57.5796Z" fill="white"/>
<path d="M33.344 41.6073C33.1572 41.6073 32.9704 41.5361 32.828 41.3937L31.4352 40.0009C31.15 39.7157 31.15 39.2541 31.4352 38.9693C31.7204 38.6841 32.1824 38.6841 32.4668 38.9693L33.8596 40.3621C34.1444 40.6473 34.1444 41.1089 33.8596 41.3937C33.7176 41.5361 33.5308 41.6073 33.344 41.6073Z" fill="white"/>
<path d="M45.2057 53.4684C45.0189 53.4684 44.8325 53.3972 44.6897 53.2548L43.3913 51.9564C43.1061 51.6716 43.1061 51.2096 43.3913 50.9248C43.6761 50.6396 44.1381 50.6396 44.4229 50.9248L45.7213 52.2232C46.0065 52.508 46.0065 52.97 45.7213 53.2548C45.5789 53.3972 45.3921 53.4684 45.2057 53.4684Z" fill="white"/>
<path d="M31.1564 46.8889H27.9344C27.5312 46.8889 27.2048 46.5625 27.2048 46.1593C27.2048 45.7561 27.5312 45.4297 27.9344 45.4297H31.1564C31.5596 45.4297 31.886 45.7561 31.886 46.1593C31.886 46.5625 31.5596 46.8889 31.1564 46.8889Z" fill="white"/>
<path d="M49.3168 46.8889H46.0948C45.6916 46.8889 45.3652 46.5625 45.3652 46.1593C45.3652 45.7561 45.6916 45.4297 46.0948 45.4297H49.3168C49.7196 45.4297 50.0464 45.7561 50.0464 46.1593C50.0464 46.5625 49.72 46.8889 49.3168 46.8889Z" fill="white"/>
<path d="M32.116 53.398C31.9292 53.398 31.7428 53.3268 31.6 53.1844C31.3148 52.8996 31.3148 52.4376 31.6 52.1528L32.828 50.9248C33.1124 50.6396 33.5748 50.6396 33.8596 50.9248C34.1444 51.2096 34.1444 51.6716 33.8596 51.9564L32.6316 53.1844C32.4896 53.3268 32.3028 53.398 32.116 53.398Z" fill="white"/>
<path d="M43.9071 41.607C43.7203 41.607 43.5339 41.5358 43.3911 41.3934C43.1059 41.1086 43.1059 40.6466 43.3911 40.3618L44.7079 39.045C44.9931 38.7598 45.4547 38.7598 45.7395 39.045C46.0247 39.3298 46.0247 39.7918 45.7395 40.0766L44.4227 41.3934C44.2803 41.5358 44.0935 41.607 43.9071 41.607Z" fill="white"/>
</g>
</svg>
