<svg version="1.1" id="Layer_1" xmlns="http://www.w3.org/2000/svg" xmlns:xlink="http://www.w3.org/1999/xlink" x="0px" y="0px"
	 width="100%" viewBox="100 100 300 300" enable-background="new 0 0 496 496" xml:space="preserve">
<path fill="#40916C" opacity="1.000000" stroke="none" 
	d="
M325.867340,301.912842 
	C309.471405,314.445709 293.355621,326.756165 276.575989,339.573730 
	C253.696899,284.604187 219.156998,237.460510 185.092560,189.322052 
	C190.677094,186.447006 196.382492,186.082550 201.750717,185.035202 
	C224.581909,180.580795 247.502731,176.587234 270.366608,172.296463 
	C272.933807,171.814682 274.771362,171.997009 276.516815,174.132751 
	C288.883942,189.265381 300.274200,205.020142 308.867462,222.683640 
	C310.466888,225.971313 310.119049,228.058777 307.490082,230.498703 
	C301.140503,236.391663 294.937042,242.449661 288.851868,248.615997 
	C286.526520,250.972366 284.705505,250.969040 281.952759,249.228165 
	C268.564667,240.761353 254.871155,232.828766 239.815186,227.609421 
	C237.385727,226.767212 234.917740,225.758148 231.271851,225.952942 
	C253.794998,245.661957 271.298920,268.569550 286.825775,294.221954 
	C319.833191,250.925232 353.137695,209.062485 389.728668,168.701553 
	C390.221863,171.830109 388.620605,172.904724 387.606323,174.195724 
	C366.979950,200.449554 348.119904,227.814529 333.052429,257.742889 
	C328.509430,266.766602 326.340363,275.227173 330.993408,284.605042 
	C331.210632,285.042755 331.245422,285.569397 331.377441,286.051270 
	C334.619507,297.884216 335.349213,294.603455 325.867340,301.912842 
z"/>
<path fill="#000000" opacity="1.000000" stroke="none" 
	d="
M182.864792,181.033539 
	C179.094391,181.979126 175.719727,182.809906 171.338791,183.888412 
	C205.736816,231.893112 240.669968,278.850922 265.571533,333.527161 
	C261.910156,332.388580 261.304413,330.154968 260.239990,328.509735 
	C236.150803,291.274902 210.560989,255.166595 182.175308,221.016632 
	C175.115372,212.523056 168.374817,209.861160 157.797028,212.865265 
	C146.943237,215.947739 136.240967,219.167923 124.350861,224.155670 
	C173.015656,252.504501 211.538574,290.119812 245.424911,333.963898 
	C242.556061,334.164154 241.680466,332.557434 240.612411,331.493073 
	C214.282578,305.254150 184.321167,283.626740 153.629700,262.924194 
	C151.944427,261.787415 150.251892,260.777069 148.073792,261.727325 
	C141.391708,264.642548 134.690659,267.514252 126.614960,270.999298 
	C164.962418,288.142303 200.222382,307.859039 230.187500,335.760712 
	C229.917770,336.201111 229.648041,336.641479 229.378311,337.081879 
	C224.805695,334.243683 220.294983,331.299591 215.650436,328.584381 
	C184.501572,310.374908 151.580353,295.962097 117.940636,283.097076 
	C116.385681,282.502380 114.866417,281.799713 113.282898,281.297546 
	C110.558578,280.433624 109.470245,278.894775 109.470535,275.814301 
	C109.472878,251.004959 109.203461,226.195755 109.152771,201.386230 
	C109.130318,190.395187 109.681686,179.397980 109.448471,168.414688 
	C109.348061,163.686096 110.909744,162.577911 115.382835,162.591415 
	C163.532593,162.736938 211.682907,162.693390 259.833069,162.701462 
	C263.121460,162.702026 266.409882,162.701538 269.776550,163.403625 
	C241.011047,169.812271 211.929993,174.358505 182.864792,181.033539 
z"/>
</svg>