<svg width="151" height="151" viewBox="0 0 151 151" fill="none" xmlns="http://www.w3.org/2000/svg">
<path d="M148.724 64.113C144.632 37.3337 127.858 4.4335 94.7189 0.990477C94.7189 0.990477 69.558 -2.06995 44.755 2.56843C30.0343 5.32131 17.1264 13.516 8.95889 25.2939C0.791235 37.0718 -1.93696 51.4333 1.37409 65.1253C3.5246 74.0183 4.97781 83.2223 4.579 92.3604C3.88487 108.264 4.28423 123.11 19.7188 132.594C33.5 141.063 50.8439 148.532 67.3903 149.841C78.6351 150.73 91.2453 149.291 102.083 146.363C157.315 131.444 152.815 90.8921 148.724 64.113Z" fill="#F4F7FA"/>
<path d="M122.872 13.4761V131.171C122.872 132.648 121.822 133.899 120.431 133.963L30.3259 138.183C28.7261 138.256 27.4558 137.029 27.4558 135.442V9.02147C27.4558 7.43457 28.7636 6.21209 30.3635 6.29177L39.5977 6.75754L120.497 10.8326C120.713 10.8435 120.917 10.8822 121.117 10.947C121.975 11.2272 122.606 11.9754 122.845 12.9004C122.897 13.0858 122.872 13.2777 122.872 13.4761Z" fill="#97A6B7"/>
<path d="M39.2228 112.168L37.1108 112.231L37.1105 96.153L39.2216 96.1172L39.2228 112.168Z" fill="#97A6B7"/>
<path d="M43.2858 112.046L41.1876 112.109L41.1862 101.094L43.2837 101.05L43.2858 112.046Z" fill="#97A6B7"/>
<path d="M47.3221 111.925L45.2376 111.988L45.2341 98.1175L47.3177 98.0786L47.3221 111.925Z" fill="#97A6B7"/>
<path d="M51.3323 111.805L49.2614 111.867L49.2573 100.859L51.3276 100.815L51.3323 111.805Z" fill="#97A6B7"/>
<path d="M55.3162 111.686L53.2587 111.747L53.2549 103.779L55.3119 103.73L55.3162 111.686Z" fill="#97A6B7"/>
<path d="M59.2744 111.567L57.2303 111.629L57.2208 95.8115L59.2641 95.7769L59.2744 111.567Z" fill="#97A6B7"/>
<path d="M63.2069 111.45L61.176 111.51L61.1726 106.773L63.2033 106.72L63.2069 111.45Z" fill="#97A6B7"/>
<path d="M67.1142 111.333L65.0963 111.393L65.0859 98.7811L67.1031 98.7417L67.1142 111.333Z" fill="#97A6B7"/>
<path d="M116.238 89.4293L37.1105 90.4055L37.1104 86.2235L116.229 85.5142L116.238 89.4293Z" fill="#97A6B7"/>
<path d="M116.309 120.611L37.111 123.716L37.111 119.526L116.3 116.689L116.309 120.611Z" fill="#97A6B7"/>
<path d="M75.3629 25.9042L37.1094 24.3379L37.1093 19.8096L75.358 21.5153L75.3629 25.9042Z" fill="#97A6B7"/>
<path d="M116.257 97.7727L74.5332 98.5874L74.5299 95.5881L116.25 94.8774L116.257 97.7727Z" fill="#97A6B7"/>
<path d="M116.271 103.906L74.5401 104.941L74.537 102.117L116.265 101.18L116.271 103.906Z" fill="#97A6B7"/>
<path d="M116.285 110.211L74.5472 111.473L74.5439 108.471L116.279 107.313L116.285 110.211Z" fill="#97A6B7"/>
<path d="M116.303 77.5615L36.5793 77.7302V32.9941L37.7385 33.0344L37.7239 76.5736L116.293 76.4813L116.303 77.5615Z" fill="#97A6B7"/>
<path d="M41.4731 73.8571C41.3282 73.857 41.1831 73.8058 41.0708 73.7031C40.8419 73.4937 40.8367 73.1497 41.0589 72.9349L59.9425 54.6824C60.1352 54.4962 60.4438 54.4749 60.6691 54.6323L70.2924 61.3616L87.6836 45.9078C87.8695 45.7424 88.1526 45.7317 88.3595 45.882L97.7211 52.6768L111.532 38.2012C111.723 38.0001 112.048 37.9977 112.256 38.196C112.464 38.3941 112.478 38.7177 112.286 38.9189L98.1791 53.724C97.9995 53.9124 97.7026 53.9368 97.4869 53.7804L88.094 46.9727L70.7154 62.437C70.5239 62.6073 70.2329 62.6224 70.0198 62.4735L60.4107 55.7643L41.8871 73.693C41.7739 73.8024 41.6237 73.8573 41.4731 73.8571Z" fill="#97A6B7"/>
<path d="M60.2205 53.029C58.983 53.0745 58.0335 54.023 58.102 55.1474C58.1705 56.2716 59.2307 57.1427 60.4678 57.0931C61.7023 57.0435 62.6461 56.0955 62.578 54.9752C62.5099 53.855 61.4554 52.9836 60.2205 53.029Z" fill="#97A6B7"/>
<path d="M41.2835 71.3228C40.0065 71.3879 39.0261 72.3668 39.0961 73.5088C39.1661 74.6508 40.2597 75.5201 41.5363 75.4507C42.8102 75.3814 43.7847 74.403 43.715 73.2653C43.6454 72.1275 42.5578 71.2577 41.2835 71.3228Z" fill="#97A6B7"/>
<path d="M70.2173 60.0301C68.9999 60.0823 68.066 61.0288 68.1337 62.1439C68.2014 63.259 69.2447 64.1172 70.4617 64.0609C71.6763 64.0047 72.6046 63.0587 72.5372 61.9477C72.4699 60.8366 71.4322 59.978 70.2173 60.0301Z" fill="#97A6B7"/>
<path d="M97.674 51.0611C96.5117 51.1032 95.621 52.0209 95.6865 53.1105C95.7519 54.2 96.7486 55.0459 97.9106 54.9998C99.0702 54.9539 99.9557 54.0366 99.8906 52.9509C99.8253 51.8652 98.8339 51.019 97.674 51.0611Z" fill="#97A6B7"/>
<path d="M113.956 38.5069C113.892 37.4343 112.924 36.5869 111.793 36.6144C110.659 36.6419 109.79 37.537 109.854 38.6134C109.919 39.6897 110.892 40.5368 112.025 40.5055C113.157 40.4742 114.02 39.5794 113.956 38.5069Z" fill="#97A6B7"/>
<path d="M87.929 44.3121C86.7478 44.3479 85.8421 45.2676 85.9083 46.3662C85.9746 47.4647 86.9874 48.3229 88.1684 48.2832C89.347 48.2435 90.2473 47.3242 90.1814 46.2296C90.1155 45.135 89.108 44.2764 87.929 44.3121Z" fill="#97A6B7"/>
<path d="M122.872 12.9004V17.2688L27.4558 12.2104V9.02148C27.4558 7.43458 28.7636 6.21209 30.3635 6.29177L32.8469 6.28967L39.6007 6.6411L120.494 10.8326C120.71 10.8435 120.888 10.8822 121.088 10.947C121.961 11.2251 122.682 11.9732 122.872 12.9004Z" fill="#97A6B7"/>
<path d="M111.027 14.5413C111.561 14.008 111.561 13.1434 111.027 12.6101C110.494 12.0768 109.629 12.0768 109.096 12.6101C108.563 13.1434 108.563 14.008 109.096 14.5413C109.629 15.0745 110.494 15.0745 111.027 14.5413Z" fill="#97A6B7"/>
<path d="M115.339 14.7571C115.873 14.2238 115.873 13.3592 115.34 12.8259C114.806 12.2926 113.942 12.2926 113.408 12.8259C112.875 13.3592 112.875 14.2238 113.408 14.7571C113.942 15.2904 114.806 15.2904 115.339 14.7571Z" fill="#97A6B7"/>
<path d="M119.436 14.9724C119.969 14.4391 119.969 13.5745 119.436 13.0413C118.903 12.508 118.038 12.508 117.505 13.0413C116.972 13.5745 116.972 14.4391 117.505 14.9724C118.038 15.5057 118.903 15.5057 119.436 14.9724Z" fill="#97A6B7"/>
<path opacity="0.4" d="M39.5951 6.64115L39.5865 6.75759L39.0497 12.6928L29.9982 12.1724L27.4558 12.5832V9.02147C27.4558 7.43457 28.7636 6.21209 30.3635 6.29177L32.8469 6.28967L39.5951 6.64115Z" fill="url(#paint0_linear_59_780)"/>
<path d="M125.53 17.2683V131.171C125.53 132.648 124.444 133.899 123.053 133.963L103.788 134.864L32.8396 138.183C31.2412 138.255 29.8613 137.029 29.8613 135.442V12.1724L31.3785 9.76801C31.3785 8.1809 31.9098 9.00203 33.5083 9.08182L53.1833 9.86494L122.874 12.64C124.027 12.6989 123.393 13.539 123.393 13.79L125.53 17.2683Z" fill="white"/>
<path d="M41.9285 112.168L39.8539 112.231V96.1528L41.8894 96.1167V103.507L41.9285 112.168Z" fill="#89B38E"/>
<path d="M45.8737 112.039H45.8718L43.7399 112.11V108.483L43.7557 101.095L45.8629 101.047L45.8737 112.039Z" fill="#89B38E"/>
<path d="M49.909 112.039H49.9071L47.8258 112.045L47.8239 105.535L47.822 98.1323L49.9052 98.1423L49.909 112.039Z" fill="#89B38E"/>
<path d="M53.9196 111.854H53.9176L51.8497 111.892L51.8477 108.261L51.844 100.865L53.9157 100.843L53.9196 111.854Z" fill="#89B38E"/>
<path d="M57.9034 111.669H57.8996L55.9528 111.748V110.15L55.896 103.778L57.9261 103.723L57.9034 111.669Z" fill="#89B38E"/>
<path d="M61.8626 111.669H61.8569L59.8174 111.679L59.8118 103.226L59.808 95.8252L61.8512 95.8334L61.8626 111.669Z" fill="#89B38E"/>
<path d="M65.7953 111.484H65.7934L63.7635 111.528L63.7615 109.296L63.7595 106.777L65.7915 106.74L65.7953 111.484Z" fill="#89B38E"/>
<path d="M69.7012 111.299H69.6936L67.6846 111.375L67.6808 106.163L67.6732 98.7769L69.6899 98.7217L69.7012 111.299Z" fill="#89B38E"/>
<path d="M41.8878 112.168L39.8539 112.231V103.543L41.9248 103.507L41.8878 112.168Z" fill="#BCD7B6"/>
<path d="M45.7753 108.439V112.047L43.7399 112.109V108.483L45.7753 108.439Z" fill="#BCD7B6"/>
<path d="M49.907 111.925L47.8258 111.988L47.8239 105.506L49.9051 105.468L49.907 111.925Z" fill="#BCD7B6"/>
<path d="M53.9176 111.805L51.8496 111.868L51.8477 108.249L53.9157 108.205L53.9176 111.805Z" fill="#BCD7B6"/>
<path d="M57.8033 110.101V111.686L55.9529 111.749V110.15L57.8033 110.101Z" fill="#BCD7B6"/>
<path d="M61.8569 111.568L59.8174 111.629L59.8118 103.201L61.8512 103.167L61.8569 111.568Z" fill="#BCD7B6"/>
<path d="M65.7933 111.45L63.7634 111.51L63.7615 109.287L65.7914 109.233L65.7933 111.45Z" fill="#BCD7B6"/>
<path d="M69.6936 111.334L67.6846 111.393L67.6808 106.172L69.6898 106.132L69.6936 111.334Z" fill="#BCD7B6"/>
<path d="M118.825 89.4293L39.6978 90.4055L39.6978 86.2235L118.816 85.5142L118.825 89.4293Z" fill="#89B38E"/>
<path d="M118.897 120.611L39.6984 123.716L39.6984 119.526L118.888 116.689L118.897 120.611Z" fill="#89B38E"/>
<path d="M77.9502 25.9042L39.6966 24.3379L39.6965 19.8096L77.9452 21.5153L77.9502 25.9042Z" fill="#89B38E"/>
<path d="M118.844 97.7727L77.1205 98.5874L77.1172 95.5881L118.838 94.8774L118.844 97.7727Z" fill="#89B38E"/>
<path d="M118.858 103.906L77.1275 104.941L77.1244 102.117L118.852 101.18L118.858 103.906Z" fill="#89B38E"/>
<path d="M118.873 110.211L77.1346 111.473L77.1313 108.471L118.866 107.313L118.873 110.211Z" fill="#89B38E"/>
<path d="M118.928 77.5615L39.2404 77.7302V32.9941L40.3627 33.0344L40.3297 76.5736L118.908 76.4813L118.928 77.5615Z" fill="#89B38E"/>
<path d="M44.0604 73.8571C43.9155 73.857 43.7704 73.8058 43.6581 73.7031C43.4292 73.4937 43.4239 73.1497 43.6462 72.9349L62.5298 54.6824C62.7225 54.4962 63.0311 54.4749 63.2563 54.6323L72.8797 61.3616L90.2708 45.9078C90.4568 45.7424 90.7399 45.7317 90.9468 45.882L100.308 52.6768L114.119 38.2012C114.311 38.0001 114.635 37.9977 114.843 38.196C115.052 38.3941 115.065 38.7177 114.873 38.9189L100.766 53.724C100.587 53.9124 100.29 53.9368 100.074 53.7804L90.6812 46.9727L73.3026 62.437C73.1112 62.6073 72.8202 62.6224 72.607 62.4735L62.998 55.7643L44.4743 73.6929C44.3612 73.8024 44.211 73.8573 44.0604 73.8571Z" fill="#89B38E"/>
<path d="M62.8079 53.029C61.5704 53.0745 60.6209 54.023 60.6894 55.1474C60.7579 56.2716 61.8181 57.1427 63.0552 57.0931C64.2897 57.0435 65.2335 56.0955 65.1654 54.9752C65.0973 53.855 64.0427 52.9836 62.8079 53.029Z" fill="#BCD7B6"/>
<path d="M43.8709 71.3228C42.5939 71.3879 41.6135 72.3668 41.6835 73.5088C41.7535 74.6508 42.8471 75.5201 44.1237 75.4507C45.3976 75.3814 46.3721 74.403 46.3024 73.2653C46.2328 72.1275 45.1452 71.2577 43.8709 71.3228Z" fill="#BCD7B6"/>
<path d="M72.8046 60.0301C71.5872 60.0823 70.6533 61.0288 70.721 62.1439C70.7887 63.259 71.832 64.1172 73.049 64.0609C74.2636 64.0047 75.1919 63.0587 75.1245 61.9477C75.0573 60.8366 74.0196 59.978 72.8046 60.0301Z" fill="#BCD7B6"/>
<path d="M100.261 51.0611C99.099 51.1032 98.2082 52.0209 98.2738 53.1105C98.3392 54.2 99.3359 55.0459 100.498 54.9998C101.657 54.9539 102.543 54.0366 102.478 52.9509C102.413 51.8652 101.421 51.019 100.261 51.0611Z" fill="#BCD7B6"/>
<path d="M116.544 38.5069C116.48 37.4343 115.512 36.5869 114.38 36.6144C113.246 36.6419 112.377 37.537 112.442 38.6134C112.506 39.6897 113.479 40.5368 114.612 40.5055C115.744 40.4742 116.608 39.5794 116.544 38.5069Z" fill="#BCD7B6"/>
<path d="M90.5164 44.3121C89.3352 44.3479 88.4294 45.2676 88.4957 46.3662C88.562 47.4647 89.5748 48.3229 90.7558 48.2832C91.9343 48.2435 92.8347 47.3242 92.7688 46.2296C92.703 45.135 91.6954 44.2764 90.5164 44.3121Z" fill="#BCD7B6"/>
<path opacity="0.2" d="M103.789 134.864L32.84 138.183C31.2416 138.255 29.8613 137.029 29.8613 135.442V12.1724L31.3785 9.76801C31.3785 8.1809 31.9098 9.00203 33.5083 9.08182L53.1833 9.86494C58.9139 15.9055 62.4115 25.7151 59.2697 41.6337C50.6062 85.5329 82.1621 65.6 94.7526 82.9783C105.48 97.7888 80.0107 121.059 103.789 134.864Z" fill="#89B38E"/>
<path d="M125.533 12.9004V17.2687L29.9268 12.2104V9.02147C29.9268 7.43457 31.2928 6.21209 32.8926 6.29177L123.07 10.8326C124.224 10.8908 125.153 11.7619 125.533 12.9004Z" fill="url(#paint1_linear_59_780)"/>
<path d="M113.984 13.8978C114.157 13.1638 113.703 12.4283 112.969 12.255C112.235 12.0817 111.499 12.5362 111.326 13.2702C111.153 14.0041 111.607 14.7396 112.341 14.9129C113.075 15.0862 113.81 14.6317 113.984 13.8978Z" fill="white"/>
<path d="M117.927 14.7571C118.46 14.2238 118.46 13.3592 117.927 12.8259C117.394 12.2926 116.529 12.2926 115.996 12.8259C115.462 13.3592 115.462 14.2238 115.996 14.7571C116.529 15.2904 117.394 15.2904 117.927 14.7571Z" fill="white"/>
<path d="M122.023 14.9729C122.557 14.4396 122.557 13.575 122.023 13.0417C121.49 12.5085 120.626 12.5085 120.092 13.0417C119.559 13.575 119.559 14.4396 120.092 14.9729C120.626 15.5062 121.49 15.5062 122.023 14.9729Z" fill="white"/>
<path d="M144.088 63.5591C144.088 72.3544 137.21 79.2732 128.42 79.0033C119.272 78.7224 111.579 70.8218 111.579 61.3674C111.579 51.913 119.272 45.0498 128.42 46.0024C137.21 46.9176 144.088 54.7638 144.088 63.5591Z" fill="url(#paint2_linear_59_780)"/>
<path d="M146.463 62.8008C146.463 71.5961 139.586 78.5149 130.795 78.245C121.648 77.964 113.954 70.0635 113.954 60.6091C113.954 51.1547 121.648 44.2915 130.795 45.244C139.586 46.1593 146.463 54.0054 146.463 62.8008Z" fill="url(#paint3_linear_59_780)"/>
<path d="M145.773 62.7542C145.773 71.1622 139.193 77.7651 130.795 77.4933C122.072 77.2108 114.748 69.6709 114.748 60.6626C114.748 51.6542 122.072 45.1019 130.795 45.9956C139.193 46.856 145.773 54.3461 145.773 62.7542Z" fill="url(#paint4_linear_59_780)"/>
<path d="M145.279 62.7209C145.279 70.8515 138.912 77.2289 130.796 76.9564C122.375 76.6737 115.314 69.3914 115.314 60.7008C115.314 52.0101 122.375 45.6799 130.796 46.5325C138.912 47.3544 145.279 54.5904 145.279 62.7209Z" fill="url(#paint5_linear_59_780)"/>
<path d="M130.712 49.2985C131.144 49.3395 131.494 49.7283 131.494 50.1669V51.6639C132.357 51.7603 133.222 51.9105 134.088 52.114C134.727 52.2641 135.361 52.4427 135.991 52.6498C136.369 52.7739 136.626 53.1551 136.587 53.5482L136.403 55.4253C136.355 55.9234 135.862 56.2158 135.399 56.0091C134.984 55.8241 134.558 55.6655 134.122 55.5336C133.361 55.3034 132.559 55.1533 131.715 55.0836L131.494 55.0655V59.3526C133.747 59.9829 135.401 60.8309 136.471 61.8975C137.535 62.9589 138.065 64.2819 138.065 65.87C138.065 67.5875 137.479 68.9628 136.302 70C135.118 71.0427 133.459 71.6291 131.314 71.7561V73.4083C131.314 73.8471 130.964 74.1889 130.532 74.1717L130.518 74.1712C130.085 74.1539 129.733 73.783 129.733 73.3427V71.7128L129.385 71.6971C128.379 71.6517 127.416 71.5491 126.496 71.389C125.814 71.2704 125.148 71.1174 124.499 70.9298C124.106 70.8163 123.836 70.4421 123.872 70.0401L124.089 67.6271C124.136 67.1054 124.66 66.8019 125.156 66.9975C125.734 67.2256 126.319 67.4177 126.912 67.574C127.835 67.8175 128.771 67.9737 129.719 68.043L129.733 63.2741C127.571 62.739 125.951 61.9464 124.888 60.8966C123.819 59.8417 123.283 58.4919 123.283 56.8506C123.283 55.152 123.864 53.841 125.023 52.9208C126.175 52.0053 127.814 51.5499 129.928 51.551V50.0206C129.928 49.5807 130.28 49.2573 130.712 49.2985ZM129.928 55.0211C129.26 55.0697 128.739 55.2533 128.365 55.572C127.992 55.8913 127.805 56.3203 127.805 56.8589C127.805 57.3691 127.978 57.7955 128.323 58.1378C128.669 58.4796 129.204 58.7525 129.928 58.9564V55.0211ZM131.314 63.6565V68.0297C132.041 68.0311 132.598 67.8577 132.987 67.5098C133.375 67.1624 133.569 66.6719 133.569 66.0376C133.569 65.4593 133.389 64.9797 133.028 64.5983C132.667 64.2164 132.096 63.9025 131.314 63.6565Z" fill="url(#paint6_linear_59_780)"/>
<path opacity="0.3" d="M128.175 64.7121C128.664 59.8791 133.106 57.8331 132.526 53.3874C132.169 50.6473 130.092 48.3382 127.775 46.5352C120.748 47.2721 115.314 53.0907 115.314 60.701C115.314 69.3917 122.375 76.6739 130.796 76.9566C131.613 76.9841 132.411 76.9416 133.188 76.8398C129.844 73.5122 127.754 68.8644 128.175 64.7121Z" fill="url(#paint7_linear_59_780)"/>
<path d="M110.055 36.4225C110.055 42.3542 105.417 47.0204 99.4889 46.8384C93.3194 46.649 88.1306 41.3207 88.1306 34.9445C88.1306 28.5683 93.3194 23.9396 99.4889 24.582C105.417 25.1992 110.055 30.4908 110.055 36.4225Z" fill="url(#paint8_linear_59_780)"/>
<path d="M111.657 35.9109C111.657 41.8426 107.019 46.5088 101.091 46.3267C94.9213 46.1372 89.7325 40.809 89.7325 34.4328C89.7325 28.0565 94.9213 23.4279 101.091 24.0703C107.019 24.6876 111.657 29.9791 111.657 35.9109Z" fill="url(#paint9_linear_59_780)"/>
<path d="M111.192 35.8797C111.192 41.5502 106.754 46.0034 101.091 45.8201C95.2078 45.6295 90.2684 40.5445 90.2684 34.4691C90.2684 28.3937 95.2078 23.9747 101.091 24.5775C106.754 25.1577 111.192 30.2092 111.192 35.8797Z" fill="url(#paint10_linear_59_780)"/>
<path d="M110.859 35.8568C110.859 41.3402 106.564 45.6413 101.091 45.4575C95.4121 45.2668 90.65 40.3555 90.65 34.4944C90.65 28.6333 95.4121 24.3641 101.091 24.9391C106.564 25.4933 110.859 30.3734 110.859 35.8568Z" fill="url(#paint11_linear_59_780)"/>
<path d="M101.035 26.8046C101.326 26.8323 101.562 27.0945 101.562 27.3903V28.3999C102.144 28.465 102.728 28.5662 103.312 28.7035C103.742 28.8047 104.17 28.9252 104.595 29.0649C104.849 29.1486 105.023 29.4057 104.997 29.6708L104.873 30.9368C104.84 31.2727 104.508 31.4699 104.195 31.3305C103.916 31.2057 103.629 31.0988 103.335 31.0098C102.821 30.8545 102.28 30.7533 101.711 30.7064L101.562 30.6941V33.5854C103.081 34.0106 104.197 34.5825 104.918 35.3018C105.636 36.0177 105.994 36.9099 105.994 37.981C105.994 39.1392 105.598 40.0667 104.804 40.7662C104.006 41.4695 102.888 41.865 101.441 41.9506V43.0649C101.441 43.3609 101.205 43.5914 100.913 43.5798L100.904 43.5794C100.612 43.5678 100.375 43.3176 100.375 43.0206V41.9214L100.14 41.9108C99.4615 41.8802 98.8118 41.811 98.191 41.7031C97.7313 41.6231 97.2824 41.5199 96.8444 41.3934C96.5795 41.3169 96.3976 41.0645 96.4219 40.7934L96.5678 39.166C96.5993 38.8142 96.9527 38.6094 97.2872 38.7414C97.6772 38.8952 98.072 39.0248 98.4716 39.1302C99.0944 39.2944 99.7256 39.3997 100.365 39.4465L100.375 36.2303C98.916 35.8694 97.824 35.3348 97.1066 34.6268C96.3858 33.9154 96.0242 33.005 96.0242 31.8981C96.0242 30.7526 96.4164 29.8683 97.1977 29.2478C97.9751 28.6303 99.0802 28.3232 100.506 28.324V27.2918C100.506 26.995 100.743 26.7769 101.035 26.8046ZM100.506 30.6641C100.055 30.6969 99.7036 30.8207 99.452 31.0356C99.2 31.2509 99.0739 31.5404 99.0739 31.9035C99.0739 32.2476 99.1906 32.5352 99.4237 32.7661C99.6565 32.9966 100.017 33.1806 100.506 33.3182V30.6641ZM101.441 36.488V39.4374C101.931 39.4383 102.306 39.3213 102.569 39.0867C102.831 38.8524 102.961 38.5216 102.961 38.0938C102.961 37.7038 102.84 37.3804 102.597 37.1231C102.353 36.8656 101.968 36.6539 101.441 36.488Z" fill="url(#paint12_linear_59_780)"/>
<path opacity="0.3" d="M99.3232 37.1998C99.6532 33.9403 102.649 32.5604 102.258 29.5622C102.017 27.7142 100.616 26.1569 99.0539 24.9409C94.3147 25.438 90.65 29.3621 90.65 34.4946C90.65 40.3558 95.4121 45.2671 101.091 45.4577C101.642 45.4762 102.181 45.4476 102.704 45.3789C100.449 43.1348 99.0397 40.0001 99.3232 37.1998Z" fill="url(#paint13_linear_59_780)"/>
<path d="M143.419 24.1733C143.419 32.0192 137.284 38.1911 129.442 37.9504C121.282 37.6997 114.419 30.6521 114.419 22.2182C114.419 13.7844 121.282 7.66211 129.442 8.51187C137.284 9.32831 143.419 16.3274 143.419 24.1733Z" fill="url(#paint14_linear_59_780)"/>
<path d="M145.538 23.4966C145.538 31.3425 139.403 37.5144 131.561 37.2736C123.401 37.023 116.538 29.9753 116.538 21.5415C116.538 13.1077 123.401 6.9854 131.561 7.8351C139.403 8.6516 145.538 15.6507 145.538 23.4966Z" fill="url(#paint15_linear_59_780)"/>
<path d="M144.922 23.4553C144.922 30.9557 139.052 36.8459 131.561 36.6033C123.78 36.3514 117.247 29.6254 117.247 21.5895C117.247 13.5536 123.78 7.70862 131.561 8.50587C139.052 9.27325 144.922 15.9549 144.922 23.4553Z" fill="url(#paint16_linear_59_780)"/>
<path d="M144.481 23.4255C144.481 30.6784 138.801 36.3673 131.561 36.1242C124.05 35.872 117.751 29.3759 117.751 21.6234C117.751 13.8709 124.05 8.22406 131.561 8.98466C138.801 9.71776 144.481 16.1725 144.481 23.4255Z" fill="url(#paint17_linear_59_780)"/>
<path d="M131.487 11.4519C131.872 11.4885 132.184 11.8353 132.184 12.2266V13.562C132.955 13.648 133.726 13.7819 134.499 13.9635C135.068 14.0973 135.634 14.2567 136.196 14.4415C136.533 14.5522 136.762 14.8922 136.728 15.2428L136.564 16.9173C136.52 17.3616 136.081 17.6225 135.668 17.4381C135.298 17.2731 134.918 17.1317 134.529 17.0139C133.85 16.8085 133.135 16.6746 132.381 16.6125L132.184 16.5963V20.4207C134.194 20.9829 135.67 21.7394 136.624 22.6909C137.573 23.6378 138.046 24.8179 138.046 26.2346C138.046 27.7667 137.523 28.9934 136.473 29.9187C135.418 30.8488 133.938 31.372 132.024 31.4853V32.9592C132.024 33.3506 131.712 33.6555 131.326 33.6402L131.314 33.6397C130.928 33.6243 130.614 33.2934 130.614 32.9007V31.4468L130.303 31.4327C129.406 31.3923 128.547 31.3007 127.726 31.1579C127.118 31.0521 126.524 30.9156 125.945 30.7483C125.594 30.647 125.354 30.3133 125.386 29.9547L125.579 27.8021C125.621 27.3368 126.088 27.066 126.53 27.2406C127.046 27.444 127.568 27.6154 128.097 27.7548C128.921 27.972 129.756 28.1113 130.602 28.1732L130.614 23.9192C128.685 23.4418 127.24 22.7347 126.291 21.7982C125.338 20.8573 124.86 19.6531 124.86 18.189C124.86 16.6739 125.378 15.5043 126.412 14.6835C127.44 13.8668 128.902 13.4605 130.788 13.4615V12.0963C130.788 11.7037 131.101 11.4152 131.487 11.4519ZM130.788 16.5568C130.191 16.6002 129.726 16.764 129.394 17.0483C129.06 17.3331 128.894 17.7159 128.894 18.1962C128.894 18.6513 129.048 19.0318 129.356 19.3372C129.664 19.6421 130.142 19.8855 130.788 20.0674V16.5568ZM132.024 24.2601V28.1612C132.672 28.1625 133.169 28.0077 133.516 27.6974C133.863 27.3876 134.035 26.95 134.035 26.3842C134.035 25.8683 133.875 25.4405 133.553 25.1002C133.231 24.7595 132.721 24.4795 132.024 24.2601Z" fill="url(#paint18_linear_59_780)"/>
<path opacity="0.3" d="M129.223 25.2016C129.66 20.8903 133.622 19.0651 133.105 15.0993C132.786 12.6551 130.934 10.5952 128.867 8.98682C122.599 9.64423 117.751 14.8347 117.751 21.6234C117.751 29.376 124.05 35.872 131.561 36.1242C132.291 36.1487 133.003 36.1108 133.696 36.02C130.712 33.0517 128.848 28.9055 129.223 25.2016Z" fill="url(#paint19_linear_59_780)"/>
<path d="M40.7377 144.201C40.7377 144.201 45.7472 146.492 45.8282 146.856C45.9092 147.22 42.6034 146.727 41.2532 146.776C39.9031 146.825 38.7935 146.423 38.917 145.852C39.0407 145.28 39.5167 143.843 39.5167 143.843L40.7377 144.201Z" fill="url(#paint20_linear_59_780)"/>
<path d="M40.9257 142.352L40.6152 144.609C40.6152 144.609 39.8206 144.889 39.2881 144.554L39.0665 142.077L40.9257 142.352Z" fill="url(#paint21_linear_59_780)"/>
<path d="M17.3086 142.349L16.723 143.284C16.5593 143.546 16.5099 143.861 16.5874 144.159C16.7895 144.939 17.1933 146.457 17.3699 146.853C17.6105 147.393 20.8551 147.721 20.8551 147.721C20.8551 147.721 21.1454 147.314 20.4728 146.821C19.8002 146.327 19.3673 146.249 19.1312 145.522C18.8952 144.796 18.7415 142.743 18.7415 142.743L17.3086 142.349Z" fill="url(#paint22_linear_59_780)"/>
<path d="M19.7423 139.975C19.5287 140.145 18.4789 143.306 18.4789 143.306C18.4789 143.306 18.1404 143.737 17.501 143.098C16.8617 142.46 17.2117 142.812 17.2117 142.812L17.3394 139.701L19.7423 139.975Z" fill="url(#paint23_linear_59_780)"/>
<path d="M43.7938 96.9957C44.0422 103.731 44.0354 111.049 43.6291 118.865C43.1716 127.667 42.2752 135.801 41.1525 143.174C40.7416 143.186 40.3099 143.187 39.8591 143.174C39.5546 143.164 39.2596 143.149 38.9745 143.129C38.4048 141.598 37.7318 139.585 37.1306 137.181C36.4986 134.654 36.119 132.387 35.8499 130.22C34.9025 122.589 36.0359 121.926 35.2657 116.271C34.5837 111.262 33.597 111.064 32.4553 103.953C31.2166 96.2362 32.1553 95.0813 32.6115 94.6643C34.5534 92.8894 39.1018 94.1118 43.7938 96.9957Z" fill="url(#paint24_linear_59_780)"/>
<path opacity="0.25" d="M32.6116 94.6644C34.4637 92.9713 38.6875 94.0092 43.1452 96.6105C37.9966 102.146 37.4281 105.744 38.0382 108.081C38.7275 110.722 40.8411 111.487 40.8261 114.373C40.8077 117.92 37.6044 118.852 37.6635 122.605C37.7025 125.087 39.1092 125.065 39.434 128.131C39.8183 131.758 37.9777 133.004 38.5664 135.688C38.8197 136.843 39.5469 138.354 41.6246 139.912C41.4719 141.014 41.3154 142.104 41.1525 143.174C40.7418 143.186 40.3101 143.187 39.8592 143.174C39.5547 143.165 39.2596 143.149 38.9747 143.129C38.4049 141.598 37.7318 139.585 37.1306 137.182C36.4986 134.654 36.119 132.387 35.85 130.22C34.9026 122.589 36.036 121.926 35.2658 116.271C34.5837 111.262 33.5971 111.064 32.4554 103.953C31.2168 96.2361 32.1554 95.0812 32.6116 94.6644Z" fill="url(#paint25_linear_59_780)"/>
<path d="M40.6132 96.8749C36.176 103.334 31.3874 111.375 27.0992 121.002C23.8585 128.278 21.5044 135.11 19.7734 141.201C19.5409 141.308 18.9926 141.521 18.2927 141.427C17.3382 141.298 16.7674 140.687 16.6182 140.517C15.9302 136.146 16.016 132.446 16.2595 129.776C16.4155 128.067 16.691 125.22 17.7892 121.708C19.0194 117.774 19.8592 117.554 21.4617 113.393C23.125 109.073 22.7273 107.993 24.3232 102.586C24.9788 100.365 26.0754 97.0594 27.881 93.1069C32.1252 94.3628 36.3692 95.6189 40.6132 96.8749Z" fill="url(#paint26_linear_59_780)"/>
<path d="M58.638 87.7617C58.596 89.3334 56.0128 90.7178 53.9329 91.1423C49.0697 92.1349 43.4315 88.6013 40.7554 84.6924C40.2299 83.9249 39.6461 82.9943 39.5053 83.0663C39.1998 83.2226 41.9027 88.8543 43.3783 93.4962C44.3612 96.5881 43.7143 95.8255 44.3359 97.3724C44.6088 98.0518 45.0338 98.9459 44.6443 99.6528C44.5782 99.7729 44.3876 100.071 43.8933 100.292C41.7448 101.256 34.7311 100.985 34.7311 100.985C28.1778 100.733 24.4353 104.095 22.7606 102.152C22.3101 101.63 22.007 100.721 21.7188 99.8563C21.1796 98.2387 21.1117 96.942 21.0869 96.6028C20.8576 93.4627 18.2747 84.3642 12.5641 76.9118C11.4262 75.4268 10.6349 74.6456 10.5854 73.2655C10.4404 69.2142 16.8586 64.742 22.2023 64.2281C23.667 64.0873 26.2898 64.1317 28.7487 64.3635C29.7314 64.456 30.7776 64.5924 31.9021 64.7891C34.6293 65.2662 36.5277 65.5983 38.4626 66.4835C46.2647 70.0532 44.562 77.9995 53.0064 83.4937C55.9099 85.3826 58.682 86.1158 58.638 87.7617Z" fill="url(#paint27_linear_59_780)"/>
<path d="M26.6708 60.0249C26.6708 60.0249 26.3357 61.8949 25.5644 63.2261C24.8673 64.4292 21.9851 64.8605 21.3846 65.0699C20.7841 65.2792 22.2905 66.3251 23.8926 66.7042C25.4944 67.0834 30.1803 67.3313 31.098 66.8269C32.0157 66.3226 30.502 66.1685 29.3997 65.5889C28.2973 65.0094 27.9287 62.6537 28.27 61.6522C28.6114 60.6506 26.6708 60.0249 26.6708 60.0249Z" fill="url(#paint28_linear_59_780)"/>
<path d="M28.6455 59.1441C29.5572 57.8913 29.1193 55.4695 28.2823 55.1716C28.0431 55.0865 27.8844 55.215 25.5453 57.1958C24.3838 58.1795 23.8197 58.6852 23.7995 59.3494C23.7871 59.7549 23.971 60.2359 24.2455 60.5719C24.3868 60.7447 24.6157 60.9422 25.0988 61.3038C25.5277 61.6247 25.5034 61.6171 25.6327 61.7088C25.9432 61.9291 26.5183 62.2827 27.4623 62.6002C27.4335 62.3734 27.412 62.0874 27.4274 61.7625C27.4332 61.6375 27.4616 61.1471 27.6137 60.6913C27.8753 59.907 28.3496 59.5507 28.6455 59.1441Z" fill="url(#paint29_linear_59_780)"/>
<path d="M28.1663 58.8085C27.8152 58.7093 27.2355 58.8339 26.8381 59.1286C26.6032 59.3027 26.5562 59.446 26.167 59.723C25.8082 59.9784 25.6787 59.9772 25.5972 60.1245C25.4951 60.3085 25.5035 60.661 26.0759 61.4059C25.7365 61.2515 25.4064 61.2687 25.2359 61.4465C25.2087 61.4748 25.1435 61.5684 25.1286 61.6781C25.0749 62.0752 25.5351 62.3802 26.3115 62.3625C26.3115 62.3625 27.482 63.2679 28.8789 62.6275C30.1296 62.0539 29.2187 59.106 28.1663 58.8085Z" fill="url(#paint30_linear_59_780)"/>
<path opacity="0.2" d="M51.8162 87.5197C48.2902 86.7256 46.8852 86.7512 45.1416 85.3463C42.2385 83.0072 41.8025 79.4471 40.1154 79.4906C39.3182 79.5112 38.6705 80.3254 38.2096 81.1226C38.6343 81.7878 39.059 82.4529 39.4837 83.1181C39.4854 83.0928 39.4911 83.0732 39.5052 83.0659C39.646 82.9939 40.2298 83.9245 40.7553 84.6921C43.4314 88.601 49.0697 92.1346 53.9328 91.142C55.3273 90.8574 56.9444 90.1403 57.8738 89.2257C55.4736 88.4148 53.4236 87.8818 51.8162 87.5197Z" fill="url(#paint31_linear_59_780)"/>
<path d="M14.7082 101.076C12.5721 101.266 7.76361 101.353 4.36269 98.207C-1.29909 92.9693 1.50965 82.9992 3.48043 78.7115C5.73994 73.7954 9.33623 71.0437 11.5218 69.3714C14.2333 67.2967 15.8882 66.0304 17.8793 66.3139C23.0287 67.0472 26.595 77.6012 23.7682 80.6229C22.8427 81.612 21.9263 81.0519 19.248 81.9048C18.3758 82.1826 11.8661 84.256 10.7328 89.0505C9.93951 92.4062 11.9592 96.3354 15.5538 98.9744C15.272 99.6748 14.9901 100.375 14.7082 101.076Z" fill="url(#paint32_linear_59_780)"/>
<path opacity="0.2" d="M23.8051 102.251C24.0327 102.367 24.3791 102.515 24.8178 102.591C26.1502 102.825 27.2041 102.202 28.0156 101.838C29.2049 101.304 30.4227 101.206 32.8579 101.009C34.8869 100.844 35.2763 101.087 37.9255 101.012C39.6038 100.964 40.9679 100.823 41.8494 100.713C40.5081 100.356 39.4627 99.8495 38.6521 99.3372C36.2336 97.8089 35.8758 96.26 33.1678 95.2134C29.6497 93.8536 27.9591 95.5809 26.2149 94.1864C24.1391 92.5268 25.9766 89.6355 24.4233 84.6182C24.1597 83.7666 22.1571 77.2982 17.5623 76.4741C15.4197 76.0899 12.5897 76.9107 11.4993 78.7264C10.6458 80.1473 11.4409 81.2067 10.4032 82.7754C9.36635 84.3431 8.12619 83.9597 6.80436 85.2672C4.70554 87.3434 4.38382 91.7214 6.2787 94.1973C7.16252 95.3522 8.31104 95.8088 10.4722 96.6682C11.7922 97.193 13.0193 97.5195 14.0761 97.7268C11.4298 95.1869 10.0565 91.9115 10.7329 89.0504C11.4393 86.0617 14.2348 84.1307 16.4517 83.0325C18.6701 87.2074 20.4832 92.0451 21.0869 96.6026C21.3005 98.215 21.1489 98.6941 21.2995 99.1625C21.3999 99.475 21.6137 99.6856 22.8648 101.153C23.248 101.603 23.5709 101.979 23.8051 102.251Z" fill="url(#paint33_linear_59_780)"/>
<path d="M16.1107 102.755L15.8618 102.023C15.465 100.856 16.1174 99.6108 17.318 99.245L64.3922 84.9053L65.8266 89.7671L18.9902 104.193C17.7959 104.561 16.5062 103.918 16.1107 102.755Z" fill="url(#paint34_linear_59_780)"/>
<path d="M93.6513 104.387C80.1653 108.758 65.7129 101.116 61.4985 86.9487C57.1828 72.4411 65.315 57.0509 79.5192 52.9611C93.4675 48.945 107.571 57.5142 111.171 71.7333C114.688 85.629 106.904 100.092 93.6513 104.387ZM92.563 100.427C103.754 96.8313 110.313 84.6257 107.309 72.9161C104.247 60.9774 92.378 53.8439 80.6958 57.2425C68.8344 60.6931 62.029 73.5525 65.5958 85.6937C69.0922 97.5956 81.2067 104.076 92.563 100.427Z" fill="url(#paint35_linear_59_780)"/>
<path opacity="0.3" d="M64.3922 84.9053L58.39 86.7336C57.9782 88.6479 57.1775 89.7447 56.3716 90.4127C53.3398 92.9259 49.2915 90.185 43.6436 93.1319C40.8094 94.6107 41.3479 95.5517 38.6914 96.5835C34.2995 98.2894 32.2891 95.9265 28.4022 97.4791C24.4707 99.0496 24.0832 102.444 21.8535 102.322C20.8997 102.27 19.6718 101.576 18.3026 98.945L17.318 99.2449C16.1174 99.6107 15.465 100.855 15.8618 102.023L16.1107 102.755C16.5063 103.918 17.7958 104.561 18.9902 104.193L65.8266 89.767L64.3922 84.9053Z" fill="#D8DEE8"/>
<path d="M102.532 77.8443C102.532 83.0884 98.4315 87.2136 93.1906 87.0527C87.7363 86.8852 83.149 82.1746 83.149 76.5376C83.149 70.9005 87.7363 66.8084 93.1906 67.3764C98.4315 67.9221 102.532 72.6002 102.532 77.8443Z" fill="url(#paint36_linear_59_780)"/>
<path d="M103.948 77.3922C103.948 82.6363 99.8477 86.7615 94.6068 86.6005C89.1525 86.4331 84.5652 81.7225 84.5652 76.0854C84.5652 70.4484 89.1525 66.3563 94.6068 66.9242C99.8477 67.47 103.948 72.1481 103.948 77.3922Z" fill="url(#paint37_linear_59_780)"/>
<path d="M103.537 77.3644C103.537 82.3775 99.6134 86.3145 94.6068 86.1524C89.4057 85.9839 85.0389 81.4884 85.0389 76.1173C85.0389 70.7462 89.4057 66.8395 94.6068 67.3724C99.6135 67.8853 103.537 72.3512 103.537 77.3644Z" fill="url(#paint38_linear_59_780)"/>
<path d="M103.242 77.3444C103.242 82.1922 99.4458 85.9946 94.6068 85.8321C89.5864 85.6636 85.3763 81.3217 85.3763 76.14C85.3763 70.9583 89.5863 67.184 94.6068 67.6924C99.4458 68.1824 103.242 72.4967 103.242 77.3444Z" fill="url(#paint39_linear_59_780)"/>
<path d="M94.5571 69.3419C94.8147 69.3664 95.0231 69.5982 95.0231 69.8598V70.7523C95.538 70.8098 96.0536 70.8994 96.57 71.0207C96.9507 71.1102 97.3288 71.2167 97.7045 71.3402C97.9295 71.4142 98.0829 71.6415 98.0599 71.8759L97.9504 72.9951C97.9212 73.292 97.6277 73.4664 97.3514 73.3432C97.1039 73.2328 96.8503 73.1383 96.5903 73.0597C96.1366 72.9224 95.6582 72.8329 95.1547 72.7914L95.023 72.7805V75.3367C96.3663 75.7125 97.3529 76.2181 97.9904 76.8541C98.6249 77.487 98.941 78.2757 98.941 79.2226C98.941 80.2466 98.5915 81.0666 97.8898 81.685C97.1843 82.3067 96.1951 82.6564 94.916 82.7321V83.7172C94.916 83.9788 94.7074 84.1826 94.4497 84.1724L94.4414 84.1721C94.1831 84.1618 93.9734 83.9406 93.9734 83.6781V82.7063L93.7658 82.6969C93.1662 82.6699 92.5918 82.6087 92.043 82.5133C91.6366 82.4425 91.2397 82.3513 90.8525 82.2395C90.6183 82.1718 90.4575 81.9487 90.479 81.7091L90.608 80.2703C90.6359 79.9592 90.9483 79.7783 91.244 79.8949C91.5888 80.0309 91.9378 80.1455 92.2911 80.2387C92.8417 80.3838 93.3997 80.477 93.9651 80.5183L93.9734 77.6749C92.684 77.3559 91.7186 76.8833 91.0844 76.2573C90.4471 75.6284 90.1274 74.8236 90.1274 73.845C90.1274 72.8322 90.4741 72.0505 91.1649 71.5019C91.8522 70.956 92.8292 70.6845 94.0896 70.6852V69.7727C94.0896 69.5102 94.2991 69.3174 94.5571 69.3419ZM94.0896 72.754C93.6911 72.783 93.3803 72.8925 93.1579 73.0825C92.9351 73.2728 92.8236 73.5287 92.8236 73.8498C92.8236 74.154 92.9268 74.4082 93.1329 74.6123C93.3387 74.8161 93.6578 74.9788 94.0896 75.1004V72.754ZM94.916 77.9028V80.5102C95.3492 80.5111 95.6814 80.4077 95.9133 80.2003C96.1448 79.9932 96.2604 79.7007 96.2604 79.3225C96.2604 78.9777 96.153 78.6918 95.9378 78.4644C95.7224 78.2366 95.382 78.0494 94.916 77.9028Z" fill="url(#paint40_linear_59_780)"/>
<path opacity="0.3" d="M93.0441 78.5316C93.3358 75.6499 95.9842 74.43 95.6386 71.7793C95.4255 70.1457 94.1873 68.7688 92.8059 67.6938C88.6162 68.1333 85.3763 71.6025 85.3763 76.14C85.3763 81.3217 89.5864 85.6636 94.6068 85.8322C95.0942 85.8485 95.5703 85.8232 96.0332 85.7625C94.0394 83.7785 92.7934 81.0072 93.0441 78.5316Z" fill="url(#paint41_linear_59_780)"/>
<path d="M94.563 105.607C81.077 109.978 66.6246 102.335 62.4103 88.1679C58.0946 73.6603 66.2268 58.2701 80.431 54.1803C94.3792 50.1643 108.483 58.7334 112.082 72.9526C115.6 86.8483 107.816 101.311 94.563 105.607ZM93.4747 101.646C104.665 98.0505 111.225 85.845 108.221 74.1353C105.158 62.1966 93.2897 55.0632 81.6075 58.4617C69.7461 61.9123 62.9407 74.7717 66.5075 86.9129C70.004 98.8149 82.1185 105.295 93.4747 101.646Z" fill="url(#paint42_linear_59_780)"/>
<path d="M94.179 104.209C81.4449 108.324 67.8203 101.09 63.8618 87.7238C59.8136 74.055 67.4754 59.5628 80.848 55.6983C93.9935 51.8994 107.308 59.9581 110.719 73.3707C114.057 86.4949 106.705 100.162 94.179 104.209ZM93.4747 101.646C104.665 98.0509 111.225 85.8454 108.221 74.1357C105.158 62.197 93.2897 55.0636 81.6075 58.4621C69.7461 61.9127 62.9407 74.7721 66.5075 86.9133C70.004 98.8153 82.1184 105.295 93.4747 101.646Z" fill="url(#paint43_linear_59_780)"/>
<path opacity="0.3" d="M108.929 73.9188C105.767 61.563 93.4887 54.1689 81.3929 57.681C69.1049 61.249 62.0575 74.5694 65.7596 87.1423C69.3861 99.4587 81.9277 106.153 93.6743 102.373C105.244 98.6496 112.028 86.0295 108.929 73.9188Z" fill="white"/>
<path d="M14.8896 100.625L15.3654 99.4428C15.3654 99.4428 16.142 99.4901 16.7793 99.0332C17.1266 98.7842 17.7429 98.71 17.922 98.7597C18.1011 98.8093 18.7776 98.7797 18.0065 99.1477C17.2356 99.5154 17.2416 99.7887 17.563 100.091C17.8843 100.393 19.1072 101.042 19.5473 101.073C19.9875 101.104 19.1916 101.785 18.7478 101.872C18.3038 101.959 17.5759 102.069 16.6753 101.539C16.3468 101.345 14.8896 100.625 14.8896 100.625Z" fill="url(#paint44_linear_59_780)"/>
<path d="M57.5591 90.5519C57.5591 90.5519 59.5487 90.354 60.7343 89.8467C61.9198 89.3394 62.6857 90.0678 62.5768 90.5721C62.4679 91.0763 60.5174 91.7782 59.7381 91.8034C58.9589 91.8286 57.5591 90.5519 57.5591 90.5519Z" fill="url(#paint45_linear_59_780)"/>
<path d="M29.023 67.1073C29.0876 67.95 28.717 68.699 28.099 68.9927C27.7318 69.1672 27.3683 69.1376 27.1623 69.1008C26.8301 68.4035 26.4978 67.7061 26.1656 67.0088C26.599 67.0475 27.0539 67.0773 27.5287 67.0948C28.0503 67.114 28.5492 67.1168 29.023 67.1073Z" fill="url(#paint46_linear_59_780)"/>
<path d="M28.3555 68.8389C28.3555 68.8389 29.5582 82.3421 33.7738 84.5039C33.6657 84.9363 33.7738 88.4493 33.7738 88.4493C33.7738 88.4493 29.8441 87.266 29.6201 87.3442C29.3961 87.4224 24.8609 79.9051 27.1622 69.1009L28.3555 68.8389Z" fill="url(#paint47_linear_59_780)"/>
<defs>
<linearGradient id="paint0_linear_59_780" x1="27.4558" y1="9.49049" x2="39.5951" y2="9.49049" gradientUnits="userSpaceOnUse">
<stop stop-color="#311944"/>
<stop offset="1" stop-color="#893976"/>
</linearGradient>
<linearGradient id="paint1_linear_59_780" x1="29.9268" y1="11.7784" x2="125.533" y2="11.7784" gradientUnits="userSpaceOnUse">
<stop stop-color="#D4A96D"/>
<stop offset="1" stop-color="#D4A96D"/>
</linearGradient>
<linearGradient id="paint2_linear_59_780" x1="122.262" y1="64.247" x2="103.303" y2="70.3315" gradientUnits="userSpaceOnUse">
<stop stop-color="#FCB148"/>
<stop offset="0.0521" stop-color="#FDBA46"/>
<stop offset="0.1424" stop-color="#FFC244"/>
<stop offset="0.3183" stop-color="#FFC444"/>
<stop offset="0.4849" stop-color="#FDB946"/>
<stop offset="0.7754" stop-color="#F99C4D"/>
<stop offset="0.8658" stop-color="#F8924F"/>
<stop offset="1" stop-color="#F8924F"/>
</linearGradient>
<linearGradient id="paint3_linear_59_780" x1="137.599" y1="45.3753" x2="120.673" y2="82.7159" gradientUnits="userSpaceOnUse">
<stop stop-color="#FFDB44"/>
<stop offset="1" stop-color="#FEEF06"/>
</linearGradient>
<linearGradient id="paint4_linear_59_780" x1="134.485" y1="84.8029" x2="131.219" y2="66.9619" gradientUnits="userSpaceOnUse">
<stop stop-color="#FCB148"/>
<stop offset="0.0521" stop-color="#FDBA46"/>
<stop offset="0.1424" stop-color="#FFC244"/>
<stop offset="0.3183" stop-color="#FFC444"/>
<stop offset="0.4849" stop-color="#FDB946"/>
<stop offset="0.7754" stop-color="#F99C4D"/>
<stop offset="0.8658" stop-color="#F8924F"/>
<stop offset="1" stop-color="#F8924F"/>
</linearGradient>
<linearGradient id="paint5_linear_59_780" x1="127.561" y1="55.9254" x2="141.02" y2="84.4958" gradientUnits="userSpaceOnUse">
<stop stop-color="#FCB148"/>
<stop offset="0.0521" stop-color="#FDBA46"/>
<stop offset="0.1424" stop-color="#FFC244"/>
<stop offset="0.3183" stop-color="#FFC444"/>
<stop offset="0.4849" stop-color="#FDB946"/>
<stop offset="0.7754" stop-color="#F99C4D"/>
<stop offset="0.8658" stop-color="#F8924F"/>
<stop offset="1" stop-color="#F8924F"/>
</linearGradient>
<linearGradient id="paint6_linear_59_780" x1="127.025" y1="49.7772" x2="133.792" y2="75.1408" gradientUnits="userSpaceOnUse">
<stop stop-color="#FFDB44"/>
<stop offset="1" stop-color="#FEEF06"/>
</linearGradient>
<linearGradient id="paint7_linear_59_780" x1="123.602" y1="57.7745" x2="137.033" y2="86.2873" gradientUnits="userSpaceOnUse">
<stop stop-color="#FCB148"/>
<stop offset="0.0521" stop-color="#FDBA46"/>
<stop offset="0.1424" stop-color="#FFC244"/>
<stop offset="0.3183" stop-color="#FFC444"/>
<stop offset="0.4849" stop-color="#FDB946"/>
<stop offset="0.7754" stop-color="#F99C4D"/>
<stop offset="0.8658" stop-color="#F8924F"/>
<stop offset="1" stop-color="#F8924F"/>
</linearGradient>
<linearGradient id="paint8_linear_59_780" x1="95.3356" y1="36.8865" x2="82.5493" y2="40.99" gradientUnits="userSpaceOnUse">
<stop stop-color="#FCB148"/>
<stop offset="0.0521" stop-color="#FDBA46"/>
<stop offset="0.1424" stop-color="#FFC244"/>
<stop offset="0.3183" stop-color="#FFC444"/>
<stop offset="0.4849" stop-color="#FDB946"/>
<stop offset="0.7754" stop-color="#F99C4D"/>
<stop offset="0.8658" stop-color="#F8924F"/>
<stop offset="1" stop-color="#F8924F"/>
</linearGradient>
<linearGradient id="paint9_linear_59_780" x1="105.679" y1="24.1588" x2="94.2642" y2="49.342" gradientUnits="userSpaceOnUse">
<stop stop-color="#FFDB44"/>
<stop offset="1" stop-color="#FEEF06"/>
</linearGradient>
<linearGradient id="paint10_linear_59_780" x1="103.579" y1="50.7498" x2="101.377" y2="38.7175" gradientUnits="userSpaceOnUse">
<stop stop-color="#FCB148"/>
<stop offset="0.0521" stop-color="#FDBA46"/>
<stop offset="0.1424" stop-color="#FFC244"/>
<stop offset="0.3183" stop-color="#FFC444"/>
<stop offset="0.4849" stop-color="#FDB946"/>
<stop offset="0.7754" stop-color="#F99C4D"/>
<stop offset="0.8658" stop-color="#F8924F"/>
<stop offset="1" stop-color="#F8924F"/>
</linearGradient>
<linearGradient id="paint11_linear_59_780" x1="98.9094" y1="31.2738" x2="107.986" y2="50.5422" gradientUnits="userSpaceOnUse">
<stop stop-color="#FCB148"/>
<stop offset="0.0521" stop-color="#FDBA46"/>
<stop offset="0.1424" stop-color="#FFC244"/>
<stop offset="0.3183" stop-color="#FFC444"/>
<stop offset="0.4849" stop-color="#FDB946"/>
<stop offset="0.7754" stop-color="#F99C4D"/>
<stop offset="0.8658" stop-color="#F8924F"/>
<stop offset="1" stop-color="#F8924F"/>
</linearGradient>
<linearGradient id="paint12_linear_59_780" x1="98.5478" y1="27.1275" x2="103.112" y2="44.2332" gradientUnits="userSpaceOnUse">
<stop stop-color="#FFDB44"/>
<stop offset="1" stop-color="#FEEF06"/>
</linearGradient>
<linearGradient id="paint13_linear_59_780" x1="96.2391" y1="32.5209" x2="105.298" y2="51.7505" gradientUnits="userSpaceOnUse">
<stop stop-color="#FCB148"/>
<stop offset="0.0521" stop-color="#FDBA46"/>
<stop offset="0.1424" stop-color="#FFC244"/>
<stop offset="0.3183" stop-color="#FFC444"/>
<stop offset="0.4849" stop-color="#FDB946"/>
<stop offset="0.7754" stop-color="#F99C4D"/>
<stop offset="0.8658" stop-color="#F8924F"/>
<stop offset="1" stop-color="#F8924F"/>
</linearGradient>
<linearGradient id="paint14_linear_59_780" x1="123.949" y1="24.787" x2="107.037" y2="30.2147" gradientUnits="userSpaceOnUse">
<stop stop-color="#FCB148"/>
<stop offset="0.0521" stop-color="#FDBA46"/>
<stop offset="0.1424" stop-color="#FFC244"/>
<stop offset="0.3183" stop-color="#FFC444"/>
<stop offset="0.4849" stop-color="#FDB946"/>
<stop offset="0.7754" stop-color="#F99C4D"/>
<stop offset="0.8658" stop-color="#F8924F"/>
<stop offset="1" stop-color="#F8924F"/>
</linearGradient>
<linearGradient id="paint15_linear_59_780" x1="137.63" y1="7.95218" x2="122.532" y2="41.2619" gradientUnits="userSpaceOnUse">
<stop stop-color="#FFDB44"/>
<stop offset="1" stop-color="#FEEF06"/>
</linearGradient>
<linearGradient id="paint16_linear_59_780" x1="134.853" y1="43.1238" x2="131.939" y2="27.2088" gradientUnits="userSpaceOnUse">
<stop stop-color="#FCB148"/>
<stop offset="0.0521" stop-color="#FDBA46"/>
<stop offset="0.1424" stop-color="#FFC244"/>
<stop offset="0.3183" stop-color="#FFC444"/>
<stop offset="0.4849" stop-color="#FDB946"/>
<stop offset="0.7754" stop-color="#F99C4D"/>
<stop offset="0.8658" stop-color="#F8924F"/>
<stop offset="1" stop-color="#F8924F"/>
</linearGradient>
<linearGradient id="paint17_linear_59_780" x1="128.676" y1="17.3635" x2="140.682" y2="42.8497" gradientUnits="userSpaceOnUse">
<stop stop-color="#FCB148"/>
<stop offset="0.0521" stop-color="#FDBA46"/>
<stop offset="0.1424" stop-color="#FFC244"/>
<stop offset="0.3183" stop-color="#FFC444"/>
<stop offset="0.4849" stop-color="#FDB946"/>
<stop offset="0.7754" stop-color="#F99C4D"/>
<stop offset="0.8658" stop-color="#F8924F"/>
<stop offset="1" stop-color="#F8924F"/>
</linearGradient>
<linearGradient id="paint18_linear_59_780" x1="128.198" y1="11.879" x2="134.235" y2="34.5046" gradientUnits="userSpaceOnUse">
<stop stop-color="#FFDB44"/>
<stop offset="1" stop-color="#FEEF06"/>
</linearGradient>
<linearGradient id="paint19_linear_59_780" x1="125.144" y1="19.0128" x2="137.126" y2="44.4477" gradientUnits="userSpaceOnUse">
<stop stop-color="#FCB148"/>
<stop offset="0.0521" stop-color="#FDBA46"/>
<stop offset="0.1424" stop-color="#FFC244"/>
<stop offset="0.3183" stop-color="#FFC444"/>
<stop offset="0.4849" stop-color="#FDB946"/>
<stop offset="0.7754" stop-color="#F99C4D"/>
<stop offset="0.8658" stop-color="#F8924F"/>
<stop offset="1" stop-color="#F8924F"/>
</linearGradient>
<linearGradient id="paint20_linear_59_780" x1="43.1864" y1="136.299" x2="41.9026" y2="152.152" gradientUnits="userSpaceOnUse">
<stop stop-color="#BCD7B6"/>
<stop offset="0.71"/>
</linearGradient>
<linearGradient id="paint21_linear_59_780" x1="39.9491" y1="145.119" x2="40.215" y2="128.698" gradientUnits="userSpaceOnUse">
<stop stop-color="#FFC444"/>
<stop offset="0.9964" stop-color="#F36F56"/>
</linearGradient>
<linearGradient id="paint22_linear_59_780" x1="19.648" y1="134.393" x2="18.3641" y2="150.245" gradientUnits="userSpaceOnUse">
<stop stop-color="#BCD7B6"/>
<stop offset="0.365"/>
</linearGradient>
<linearGradient id="paint23_linear_59_780" x1="18.3737" y1="144.77" x2="18.6397" y2="128.348" gradientUnits="userSpaceOnUse">
<stop stop-color="#FFC444"/>
<stop offset="0.9964" stop-color="#F36F56"/>
</linearGradient>
<linearGradient id="paint24_linear_59_780" x1="26.1185" y1="72.2694" x2="43.5466" y2="126.952" gradientUnits="userSpaceOnUse">
<stop offset="1"/>
</linearGradient>
<linearGradient id="paint25_linear_59_780" x1="43.9322" y1="118.526" x2="31.7904" y2="118.496" gradientUnits="userSpaceOnUse">
<stop offset="0.9964"/>
</linearGradient>
<linearGradient id="paint26_linear_59_780" x1="5.4245" y1="102.423" x2="27.0098" y2="117.613" gradientUnits="userSpaceOnUse">
<stop offset="1"/>
</linearGradient>
<linearGradient id="paint27_linear_59_780" x1="18.0616" y1="42.3451" x2="59.6945" y2="139.114" gradientUnits="userSpaceOnUse">
<stop offset="0.9964" stop-color="#D4A96D"/>
</linearGradient>
<linearGradient id="paint28_linear_59_780" x1="27.7523" y1="51.9424" x2="26.1534" y2="67.4518" gradientUnits="userSpaceOnUse">
<stop stop-color="#FFC444"/>
<stop offset="0.64" stop-color="#FFC444"/>
</linearGradient>
<linearGradient id="paint29_linear_59_780" x1="26.4127" y1="68.2525" x2="26.4915" y2="55.9217" gradientUnits="userSpaceOnUse">
<stop stop-color="#4F473C"/>
<stop offset="0.9964" stop-color="#D3B593"/>
</linearGradient>
<linearGradient id="paint30_linear_59_780" x1="26.2017" y1="58.5307" x2="31.6091" y2="72.0334" gradientUnits="userSpaceOnUse">
<stop stop-color="#FFC444"/>
<stop offset="0.5634" stop-color="#F8944E"/>
<stop offset="0.9964" stop-color="#F36F56"/>
</linearGradient>
<linearGradient id="paint31_linear_59_780" x1="57.8738" y1="85.4007" x2="38.2096" y2="85.4007" gradientUnits="userSpaceOnUse">
<stop offset="0.9964" stop-color="#4F473C"/>
</linearGradient>
<linearGradient id="paint32_linear_59_780" x1="-1.29731" y1="50.6737" x2="40.3358" y2="147.443" gradientUnits="userSpaceOnUse">
<stop offset="0.258056" stop-color="#D4A96D"/>
<stop offset="0.301098" stop-color="#D4A96D"/>
<stop offset="0.9964" stop-color="#D4A96D"/>
</linearGradient>
<linearGradient id="paint33_linear_59_780" x1="25.199" y1="69.34" x2="25.199" y2="109.684" gradientUnits="userSpaceOnUse">
<stop offset="1" stop-color="#4F473C"/>
</linearGradient>
<linearGradient id="paint34_linear_59_780" x1="65.8266" y1="94.601" x2="15.7456" y2="94.601" gradientUnits="userSpaceOnUse">
<stop stop-color="#4F473C"/>
<stop offset="0.9964" stop-color="#D3B593"/>
</linearGradient>
<linearGradient id="paint35_linear_59_780" x1="112.015" y1="78.7925" x2="60.3407" y2="78.7925" gradientUnits="userSpaceOnUse">
<stop stop-color="#4F473C"/>
<stop offset="0.515" stop-color="#D3B593"/>
</linearGradient>
<linearGradient id="paint36_linear_59_780" x1="89.5187" y1="78.2545" x2="78.2147" y2="81.8823" gradientUnits="userSpaceOnUse">
<stop stop-color="#FCB148"/>
<stop offset="0.0521" stop-color="#FDBA46"/>
<stop offset="0.1424" stop-color="#FFC244"/>
<stop offset="0.3183" stop-color="#FFC444"/>
<stop offset="0.4849" stop-color="#FDB946"/>
<stop offset="0.7754" stop-color="#F99C4D"/>
<stop offset="0.8658" stop-color="#F8924F"/>
<stop offset="1" stop-color="#F8924F"/>
</linearGradient>
<linearGradient id="paint37_linear_59_780" x1="98.663" y1="67.0025" x2="88.5715" y2="89.2663" gradientUnits="userSpaceOnUse">
<stop stop-color="#FFDB44"/>
<stop offset="1" stop-color="#FEEF06"/>
</linearGradient>
<linearGradient id="paint38_linear_59_780" x1="96.8067" y1="90.5106" x2="94.8595" y2="79.8732" gradientUnits="userSpaceOnUse">
<stop stop-color="#FCB148"/>
<stop offset="0.0521" stop-color="#FDBA46"/>
<stop offset="0.1424" stop-color="#FFC244"/>
<stop offset="0.3183" stop-color="#FFC444"/>
<stop offset="0.4849" stop-color="#FDB946"/>
<stop offset="0.7754" stop-color="#F99C4D"/>
<stop offset="0.8658" stop-color="#F8924F"/>
<stop offset="1" stop-color="#F8924F"/>
</linearGradient>
<linearGradient id="paint39_linear_59_780" x1="92.6783" y1="73.2927" x2="100.703" y2="90.3274" gradientUnits="userSpaceOnUse">
<stop stop-color="#FCB148"/>
<stop offset="0.0521" stop-color="#FDBA46"/>
<stop offset="0.1424" stop-color="#FFC244"/>
<stop offset="0.3183" stop-color="#FFC444"/>
<stop offset="0.4849" stop-color="#FDB946"/>
<stop offset="0.7754" stop-color="#F99C4D"/>
<stop offset="0.8658" stop-color="#F8924F"/>
<stop offset="1" stop-color="#F8924F"/>
</linearGradient>
<linearGradient id="paint40_linear_59_780" x1="92.3585" y1="69.6274" x2="96.3935" y2="84.7501" gradientUnits="userSpaceOnUse">
<stop stop-color="#FFDB44"/>
<stop offset="1" stop-color="#FEEF06"/>
</linearGradient>
<linearGradient id="paint41_linear_59_780" x1="90.3175" y1="74.3951" x2="98.3259" y2="91.3954" gradientUnits="userSpaceOnUse">
<stop stop-color="#FCB148"/>
<stop offset="0.0521" stop-color="#FDBA46"/>
<stop offset="0.1424" stop-color="#FFC244"/>
<stop offset="0.3183" stop-color="#FFC444"/>
<stop offset="0.4849" stop-color="#FDB946"/>
<stop offset="0.7754" stop-color="#F99C4D"/>
<stop offset="0.8658" stop-color="#F8924F"/>
<stop offset="1" stop-color="#F8924F"/>
</linearGradient>
<linearGradient id="paint42_linear_59_780" x1="93.1531" y1="107.835" x2="84.8426" y2="69.6689" gradientUnits="userSpaceOnUse">
<stop stop-color="#D3B593"/>
<stop offset="0.9964" stop-color="#4F473C"/>
</linearGradient>
<linearGradient id="paint43_linear_59_780" x1="80.7939" y1="51.9832" x2="92.3918" y2="103.168" gradientUnits="userSpaceOnUse">
<stop stop-color="#D3B593"/>
<stop offset="0.9964" stop-color="#4F473C"/>
</linearGradient>
<linearGradient id="paint44_linear_59_780" x1="14.8896" y1="100.345" x2="19.6759" y2="100.345" gradientUnits="userSpaceOnUse">
<stop stop-color="#FFC444"/>
<stop offset="0.9964" stop-color="#F36F56"/>
</linearGradient>
<linearGradient id="paint45_linear_59_780" x1="57.5591" y1="90.7393" x2="62.587" y2="90.7393" gradientUnits="userSpaceOnUse">
<stop stop-color="#BCD7B6"/>
<stop offset="0.9964" stop-color="#BCD7B6"/>
</linearGradient>
<linearGradient id="paint46_linear_59_780" x1="28.0124" y1="61.1218" x2="27.3193" y2="71.275" gradientUnits="userSpaceOnUse">
<stop/>
<stop offset="0.485"/>
<stop offset="0.9964"/>
</linearGradient>
<linearGradient id="paint47_linear_59_780" x1="30.1432" y1="81.8356" x2="30.1432" y2="58.1221" gradientUnits="userSpaceOnUse">
<stop/>
<stop offset="0.395"/>
<stop offset="0.66"/>
</linearGradient>
</defs>
</svg>
