<svg width="152" height="151" viewBox="0 0 152 151" fill="none" xmlns="http://www.w3.org/2000/svg">
<path d="M133.351 127.191C129.415 131.152 125.893 133.48 123.196 135.238C96.8962 152.381 66.8322 147.44 57.5372 145.751C42.5408 143.026 29.8818 141.104 19.0055 131.512C-5.70885 109.715 -4.5068 64.2462 14.378 36.08C16.6171 32.7404 35.4734 5.45546 65.6024 1.61082C66.3393 1.51681 66.8891 1.46322 67.3707 1.41346C72.0315 0.931738 100.914 -1.61074 124.465 17.6502C127.836 20.4073 133.261 25.3804 138.292 32.9652C156.688 60.6986 156.746 103.652 133.351 127.191Z" fill="url(#paint0_linear_51_407)"/>
<path d="M5.60074 20.2054C5.82543 19.2667 7.16214 19.2532 7.40176 20.1882C9.71815 29.2277 16.5345 52.7405 27.5572 65.3858C45.5047 85.975 57.01 119.008 44.8359 135.706C44.8359 135.706 -18.8829 122.482 5.60074 20.2054Z" fill="#40916C"/>
<path opacity="0.43" d="M7.08263 33.0622C7.09874 33.3563 7.1354 33.5977 7.16343 33.8591L7.26284 34.6278L7.47848 36.1613C7.62915 37.1823 7.79545 38.2007 7.96182 39.2191C8.30182 41.2545 8.6671 43.2855 9.05109 45.3133C9.82645 49.3673 10.7115 53.3997 11.657 57.418C12.5969 61.438 13.6493 65.4317 14.7858 69.4014C15.9257 73.3699 17.1222 77.3239 18.4482 81.2364C21.0844 89.0651 24.1489 96.7579 27.7446 104.203C29.5812 107.906 31.5156 111.563 33.6581 115.1C35.8251 118.62 38.1431 122.05 40.7005 125.295C40.7561 125.366 40.8584 125.378 40.929 125.323C40.9978 125.268 41.011 125.17 40.9601 125.099L40.9588 125.098C38.538 121.767 36.3006 118.313 34.2374 114.757C32.164 111.205 30.299 107.537 28.5322 103.825C26.767 100.111 25.1517 96.3272 23.6228 92.5093C22.0952 88.6898 20.7264 84.8089 19.3798 80.9216C16.719 73.133 14.4753 65.2055 12.4513 57.2243C11.4476 53.231 10.5245 49.2171 9.6727 45.1878C9.24359 43.1738 8.83298 41.1557 8.44743 39.1327L7.89303 36.0943L7.63147 34.5729L7.50926 33.8116C7.47325 33.5616 7.43033 33.2934 7.40785 33.0734L7.40414 33.037C7.39508 32.9484 7.31594 32.8839 7.22731 32.8929C7.14133 32.9017 7.0781 32.9768 7.08263 33.0622Z" fill="white"/>
<path d="M31.9425 0.514664C32.3307 -0.323233 33.5869 -0.0832877 33.6349 0.838976C34.0987 9.75509 36.0472 33.0964 43.9951 47.0401C56.9362 69.7436 61.4828 102.901 46.9082 116.26C46.9082 116.26 -10.3544 91.8126 31.9425 0.514664Z" fill="#40916C"/>
<path opacity="0.43" d="M30.8992 12.8528C30.8585 13.1323 30.8472 13.3653 30.824 13.6158L30.7718 14.3556L30.6837 15.8347C30.6317 16.8209 30.595 17.8074 30.5583 18.794C30.4921 20.7674 30.4503 22.7414 30.4267 24.7159C30.3869 28.6648 30.4544 32.6143 30.581 36.5619C30.702 40.5101 30.9339 44.4549 31.2493 48.393C31.5682 52.3307 31.9428 56.2655 32.4468 60.186C33.4393 68.0271 34.86 75.8218 36.8256 83.4848C37.8489 87.3051 38.9725 91.1006 40.3139 94.8229C41.682 98.5341 43.2083 102.189 44.9948 105.716C45.0344 105.794 45.1298 105.825 45.2079 105.786C45.2841 105.747 45.3157 105.655 45.2806 105.578L45.2796 105.576C43.64 101.995 42.1953 98.3323 40.9334 94.6064C39.6607 90.8836 38.6056 87.0903 37.6507 83.2752C36.6976 79.4584 35.8981 75.604 35.1861 71.7343C34.4754 67.8633 33.9257 63.9648 33.3973 60.0645C32.3735 52.257 31.768 44.3977 31.3771 36.5297C31.1901 32.5949 31.0827 28.6557 31.0447 24.7157C31.0226 22.7456 31.0185 20.7752 31.0389 18.805L31.0926 15.8505L31.1345 14.3742L31.1636 13.637C31.177 13.3958 31.1874 13.1359 31.2077 12.926L31.2112 12.8905C31.2195 12.8042 31.1563 12.7273 31.0699 12.719C30.9861 12.7109 30.9112 12.7704 30.8992 12.8528Z" fill="white"/>
<path d="M121.728 149.138H38.8279C37.957 149.138 37.2511 148.432 37.2511 147.561V2.06554C37.2511 1.1947 37.957 0.48877 38.8279 0.48877H121.728C122.599 0.48877 123.305 1.1947 123.305 2.06554V147.561C123.305 148.432 122.599 149.138 121.728 149.138Z" fill="url(#paint1_linear_51_407)"/>
<path d="M117.789 144.593H42.7626C41.8918 144.593 41.1858 143.887 41.1858 143.016V6.68565C41.1858 5.81482 41.8917 5.10889 42.7626 5.10889H117.789C118.66 5.10889 119.366 5.81482 119.366 6.68565V143.016C119.366 143.887 118.66 144.593 117.789 144.593Z" fill="url(#paint2_linear_51_407)"/>
<path d="M116.868 141.488H43.5829C42.712 141.488 42.0061 140.782 42.0061 139.911V10.5441C42.0061 9.67322 42.712 8.96729 43.5829 8.96729H116.868C117.739 8.96729 118.445 9.67322 118.445 10.5441V139.911C118.445 140.782 117.739 141.488 116.868 141.488Z" fill="#BCD7B6"/>
<path d="M119.366 22.2165L119.299 10.6671C119.299 7.61245 116.823 5.16943 113.768 5.16943H46.7328C43.6782 5.16943 41.202 7.61251 41.202 10.6671L41.1858 21.9494L119.366 22.2165Z" fill="url(#paint3_linear_51_407)"/>
<path d="M110.027 58.5891C110.036 58.4938 110.044 58.3985 110.052 58.303C111.216 43.8652 100.327 31.207 85.7311 30.0303L83.6005 56.4586L110.027 58.5891Z" fill="url(#paint4_linear_51_407)"/>
<path d="M83.5591 56.3394L104.678 72.376C107.576 68.5676 109.478 63.9286 109.958 58.8133C109.973 58.6521 109.986 58.4913 109.998 58.3306L83.5591 56.3394Z" fill="#FC9F00"/>
<path d="M81.1783 53.3973L84.1895 27.3809C72.0501 25.9759 60.88 33.0064 56.5369 43.8257L80.9866 53.512C81.0726 53.5461 81.1676 53.4893 81.1783 53.3973Z" fill="url(#paint5_linear_51_407)"/>
<path d="M83.6502 56.3583L58.8024 47.2329C57.9686 49.3984 57.5578 51.3084 57.3149 53.7289C56.1818 65.0207 62.3103 75.3659 71.9071 80.1309L83.6502 56.3583Z" fill="url(#paint6_linear_51_407)"/>
<path d="M83.6559 56.5009L83.6586 56.4796L83.6501 56.4965L83.6001 56.4585L83.5772 56.6403L71.6708 80.1367C74.3112 81.4752 77.22 82.3895 80.3178 82.7818L80.3196 82.7681C80.4737 82.7874 80.6282 82.806 80.7833 82.8225C90.3577 83.8456 99.2853 79.6371 104.719 72.4952L83.6559 56.5009Z" fill="url(#paint7_linear_51_407)"/>
<path d="M67.2234 76.2861C67.1391 76.2861 67.0546 76.2571 66.9858 76.198C60.7357 70.8224 57.3993 62.7137 58.061 54.5075C58.0908 54.1386 58.1287 53.7656 58.1739 53.3989C58.1988 53.1989 58.3818 53.0584 58.5806 53.0816C58.7805 53.1063 58.9224 53.2883 58.8978 53.4882C58.8537 53.8448 58.8168 54.2075 58.7878 54.5661C58.1449 62.5408 61.3873 70.4209 67.4611 75.645C67.6139 75.7764 67.6312 76.0066 67.5 76.1592C67.4279 76.243 67.3259 76.2861 67.2234 76.2861Z" fill="#91B3FA"/>
<path d="M85.3641 82.3918C85.1725 82.3918 85.0119 82.2424 85.0005 82.0487C84.9886 81.8477 85.1419 81.675 85.3429 81.6633C92.324 81.2502 98.8751 77.8882 103.316 72.4392C103.444 72.2831 103.673 72.2603 103.829 72.3869C103.985 72.5142 104.009 72.7439 103.882 72.9C99.3119 78.5067 92.5705 81.9661 85.386 82.3911C85.3787 82.3916 85.3714 82.3918 85.3641 82.3918Z" fill="#91B3FA"/>
<path opacity="0.7" d="M107.965 48.7504C107.813 48.7504 107.671 48.6548 107.62 48.5031C105.941 43.5687 102.82 39.3348 98.5961 36.2592C98.4332 36.1407 98.3974 35.9126 98.5159 35.7499C98.6343 35.5869 98.8627 35.5508 99.0252 35.6695C103.372 38.8341 106.582 43.1907 108.31 48.2681C108.375 48.4588 108.273 48.6658 108.082 48.7308C108.043 48.744 108.004 48.7504 107.965 48.7504Z" fill="white"/>
<path opacity="0.7" d="M70.3158 48.4231C70.2704 48.4231 70.2242 48.4146 70.1796 48.3966L57.4689 43.2733L57.6505 42.9183C58.7085 40.8491 59.9616 38.922 61.5936 36.8535C61.7184 36.6952 61.9479 36.6688 62.1058 36.7931C62.2639 36.9179 62.2908 37.1472 62.1662 37.3053C60.6579 39.2167 59.4805 41.0031 58.4835 42.896L70.4523 47.72C70.6391 47.7954 70.7294 48.0079 70.6542 48.1947C70.5969 48.3368 70.4602 48.4231 70.3158 48.4231Z" fill="white"/>
<path opacity="0.7" d="M80.1697 52.3854C80.1101 52.3854 80.0499 52.374 79.9922 52.3507L77.439 51.3209C77.2522 51.2456 77.1619 51.0332 77.2373 50.8465C77.3124 50.6597 77.5248 50.5691 77.7117 50.6447L79.9501 51.5474L81.4024 38.1927C81.4243 37.9922 81.607 37.8493 81.8042 37.8696C82.0045 37.8913 82.1491 38.0713 82.1273 38.2714L80.6382 51.9642C80.6217 52.1132 80.5389 52.2419 80.4109 52.3185C80.3363 52.363 80.2534 52.3854 80.1697 52.3854Z" fill="white"/>
<path d="M116.362 14.5185C118.165 12.7155 118.165 9.79229 116.362 7.98931C114.559 6.18633 111.636 6.18633 109.833 7.98931C108.03 9.7923 108.03 12.7155 109.833 14.5185C111.636 16.3215 114.559 16.3215 116.362 14.5185Z" fill="white"/>
<path d="M114.512 9.50875C114.512 10.2905 113.878 11.1345 113.096 11.1345C112.315 11.1345 111.681 10.2905 111.681 9.50875C111.681 8.72697 112.315 8.17236 113.096 8.17236C113.878 8.17236 114.512 8.72697 114.512 9.50875Z" fill="#BCD7B6"/>
<path d="M111.34 14.1439H114.795C115.159 14.1439 115.481 13.9088 115.592 13.5624L115.778 12.9812C115.914 12.5557 115.693 12.095 115.273 11.9416C113.867 11.4274 112.413 11.4934 110.923 11.989C110.506 12.1279 110.274 12.5743 110.389 12.9987L110.533 13.5265C110.631 13.8909 110.962 14.1439 111.34 14.1439Z" fill="#BCD7B6"/>
<path d="M86.4534 110.652H47.0229C45.4535 110.652 44.1768 109.375 44.1768 107.806V89.7216C44.1768 88.1522 45.4535 86.8755 47.0229 86.8755H86.4534C88.0228 86.8755 89.2995 88.1522 89.2995 89.7216V107.806C89.2995 109.375 88.0228 110.652 86.4534 110.652ZM47.0229 87.4224C45.755 87.4224 44.7237 88.4538 44.7237 89.7215V107.806C44.7237 109.074 45.7551 110.105 47.0229 110.105H86.4534C87.7212 110.105 88.7526 109.074 88.7526 107.806V89.7215C88.7526 88.4537 87.7212 87.4224 86.4534 87.4224H47.0229Z" fill="white"/>
<path d="M54.4653 98.1119C54.4653 97.6278 54.0728 97.2354 53.5887 97.2354H47.5025C47.0184 97.2354 46.626 97.6278 46.626 98.1119V102.557C46.626 103.041 47.0184 103.434 47.5025 103.434H53.5887C54.0728 103.434 54.4653 103.041 54.4653 102.557V98.1119Z" fill="url(#paint8_linear_51_407)"/>
<path opacity="0.8" d="M50.7353 101.246H49.0799C48.8327 101.246 48.6315 101.045 48.6315 100.798V99.5071C48.6315 99.2598 48.8327 99.0586 49.0799 99.0586H50.7353C50.9826 99.0586 51.1838 99.2598 51.1838 99.5071V100.798C51.1838 101.045 50.9826 101.246 50.7353 101.246ZM49.0799 99.4232C49.0336 99.4232 48.996 99.4608 48.996 99.5071V100.798C48.996 100.844 49.0336 100.882 49.0799 100.882H50.7353C50.7816 100.882 50.8192 100.844 50.8192 100.798V99.5071C50.8192 99.4608 50.7816 99.4232 50.7353 99.4232H49.0799Z" fill="white"/>
<path d="M48.8138 99.9701H46.626C46.5253 99.9701 46.4437 99.8886 46.4437 99.7878C46.4437 99.687 46.5253 99.6055 46.626 99.6055H48.8138C48.9145 99.6055 48.9961 99.687 48.9961 99.7878C48.9961 99.8886 48.9145 99.9701 48.8138 99.9701Z" fill="white"/>
<path d="M48.8138 100.7H46.626C46.5253 100.7 46.4437 100.618 46.4437 100.517C46.4437 100.417 46.5253 100.335 46.626 100.335H48.8138C48.9145 100.335 48.9961 100.417 48.9961 100.517C48.9961 100.618 48.9145 100.7 48.8138 100.7Z" fill="white"/>
<path d="M54.1008 99.9701H51.3662C51.2654 99.9701 51.1838 99.8886 51.1838 99.7878C51.1838 99.687 51.2654 99.6055 51.3662 99.6055H54.1008C54.2015 99.6055 54.2831 99.687 54.2831 99.7878C54.2831 99.8886 54.2015 99.9701 54.1008 99.9701Z" fill="white"/>
<path d="M54.1008 100.7H51.3662C51.2654 100.7 51.1838 100.618 51.1838 100.517C51.1838 100.417 51.2654 100.335 51.3662 100.335H54.1008C54.2015 100.335 54.2831 100.417 54.2831 100.517C54.2831 100.618 54.2015 100.7 54.1008 100.7Z" fill="white"/>
<path d="M49.4601 99.5429C49.3775 99.5429 49.3027 99.4864 49.283 99.4026L48.7672 97.2244C48.7439 97.1265 48.8046 97.0283 48.9025 97.0051C48.9999 96.9814 49.0987 97.0425 49.1219 97.1404L49.6377 99.3185C49.6609 99.4164 49.6002 99.5147 49.5023 99.5379C49.4883 99.5413 49.474 99.5429 49.4601 99.5429Z" fill="white"/>
<path d="M50.8552 99.543C50.8407 99.543 50.8262 99.5414 50.8116 99.5377C50.7138 99.5138 50.654 99.415 50.678 99.3172L51.213 97.1391C51.2371 97.0414 51.3361 96.9807 51.4335 97.0056C51.5312 97.0295 51.591 97.1282 51.567 97.226L51.032 99.4041C51.0117 99.4873 50.9371 99.543 50.8552 99.543Z" fill="white"/>
<path d="M48.9447 103.612C48.9308 103.612 48.9166 103.611 48.9025 103.607C48.8046 103.584 48.7439 103.486 48.7672 103.388L49.283 101.21C49.306 101.112 49.4046 101.051 49.5023 101.075C49.6002 101.098 49.661 101.196 49.6377 101.294L49.1219 103.472C49.1021 103.556 49.0273 103.612 48.9447 103.612Z" fill="white"/>
<path d="M51.3899 103.612C51.308 103.612 51.2334 103.557 51.213 103.473L50.678 101.295C50.654 101.198 50.7138 101.099 50.8116 101.075C50.9095 101.05 51.0081 101.111 51.032 101.208L51.567 103.387C51.591 103.484 51.5312 103.583 51.4335 103.607C51.4189 103.611 51.4043 103.612 51.3899 103.612Z" fill="white"/>
<path opacity="0.6" d="M54.4653 91.6375C54.4653 92.2119 53.9996 92.6775 53.4253 92.6775H46.7545C46.1801 92.6775 45.7145 92.2119 45.7145 91.6375V91.5298C45.7145 90.9554 46.1801 90.4897 46.7545 90.4897H53.4253C53.9996 90.4897 54.4653 90.9554 54.4653 91.5298V91.6375Z" fill="white"/>
<g opacity="0.6">
<path d="M54.8299 106.907C54.8299 107.405 54.4259 107.809 53.9275 107.809H46.6169C46.1185 107.809 45.7145 107.405 45.7145 106.907V106.888C45.7145 106.39 46.1185 105.986 46.6169 105.986H53.9275C54.4259 105.986 54.8299 106.39 54.8299 106.888V106.907Z" fill="white"/>
<path d="M65.0393 106.907C65.0393 107.405 64.6353 107.809 64.1369 107.809H56.8263C56.3279 107.809 55.9238 107.405 55.9238 106.907V106.888C55.9238 106.39 56.3279 105.986 56.8263 105.986H64.1369C64.6353 105.986 65.0393 106.39 65.0393 106.888V106.907Z" fill="white"/>
<path d="M75.6132 106.907C75.6132 107.405 75.2091 107.809 74.7107 107.809H67.4001C66.9017 107.809 66.4977 107.405 66.4977 106.907V106.888C66.4977 106.39 66.9017 105.986 67.4001 105.986H74.7107C75.2091 105.986 75.6132 106.39 75.6132 106.888V106.907Z" fill="white"/>
<path d="M86.3694 106.907C86.3694 107.405 85.9653 107.809 85.4669 107.809H78.1563C77.6579 107.809 77.2539 107.405 77.2539 106.907V106.888C77.2539 106.39 77.6579 105.986 78.1563 105.986H85.4669C85.9653 105.986 86.3694 106.39 86.3694 106.888V106.907Z" fill="white"/>
</g>
<path d="M86.2568 138.747H46.8265C45.2571 138.747 43.9802 137.47 43.9802 135.901V117.816C43.9802 116.247 45.2571 114.97 46.8265 114.97H86.2568C87.8262 114.97 89.1031 116.247 89.1031 117.816V135.901C89.1031 137.47 87.8262 138.747 86.2568 138.747ZM46.8264 115.517C45.5586 115.517 44.5271 116.549 44.5271 117.816V135.901C44.5271 137.168 45.5586 138.2 46.8264 138.2H86.2568C87.5246 138.2 88.5561 137.168 88.5561 135.901V117.816C88.5561 116.548 87.5246 115.517 86.2568 115.517H46.8264Z" fill="white"/>
<path d="M54.283 126.187C54.283 125.703 53.8906 125.311 53.4065 125.311H47.3203C46.8362 125.311 46.4437 125.703 46.4437 126.187V130.633C46.4437 131.117 46.8362 131.509 47.3203 131.509H53.4065C53.8906 131.509 54.283 131.117 54.283 130.633V126.187Z" fill="url(#paint9_linear_51_407)"/>
<path opacity="0.8" d="M50.5529 129.504H48.8976C48.6503 129.504 48.4491 129.302 48.4491 129.055V127.764C48.4491 127.517 48.6503 127.316 48.8976 127.316H50.5529C50.8002 127.316 51.0014 127.517 51.0014 127.764V129.055C51.0014 129.302 50.8002 129.504 50.5529 129.504ZM48.8975 127.681C48.8512 127.681 48.8137 127.718 48.8137 127.764V129.055C48.8137 129.101 48.8513 129.139 48.8975 129.139H50.5529C50.5992 129.139 50.6367 129.101 50.6367 129.055V127.764C50.6367 127.718 50.5992 127.681 50.5529 127.681H48.8975Z" fill="white"/>
<path d="M48.6314 128.045H46.4437C46.3429 128.045 46.2614 127.964 46.2614 127.863C46.2614 127.762 46.3429 127.681 46.4437 127.681H48.6314C48.7321 127.681 48.8137 127.762 48.8137 127.863C48.8137 127.964 48.7321 128.045 48.6314 128.045Z" fill="white"/>
<path d="M48.6314 128.592H46.4437C46.3429 128.592 46.2614 128.511 46.2614 128.41C46.2614 128.309 46.3429 128.228 46.4437 128.228H48.6314C48.7321 128.228 48.8137 128.309 48.8137 128.41C48.8137 128.511 48.7321 128.592 48.6314 128.592Z" fill="white"/>
<path d="M53.9183 128.045H51.1837C51.0829 128.045 51.0013 127.964 51.0013 127.863C51.0013 127.762 51.0829 127.681 51.1837 127.681H53.9183C54.0191 127.681 54.1006 127.762 54.1006 127.863C54.1006 127.964 54.0191 128.045 53.9183 128.045Z" fill="white"/>
<path d="M53.9183 128.592H51.1837C51.0829 128.592 51.0013 128.511 51.0013 128.41C51.0013 128.309 51.0829 128.228 51.1837 128.228H53.9183C54.0191 128.228 54.1006 128.309 54.1006 128.41C54.1006 128.511 54.0191 128.592 53.9183 128.592Z" fill="white"/>
<path d="M49.2638 127.637C49.1812 127.637 49.1064 127.581 49.0866 127.497L48.5707 125.319C48.5473 125.221 48.608 125.123 48.706 125.1C48.8034 125.076 48.9022 125.137 48.9253 125.235L49.4413 127.413C49.4646 127.511 49.4039 127.609 49.306 127.632C49.2919 127.636 49.2776 127.637 49.2638 127.637Z" fill="white"/>
<path d="M50.6589 127.637C50.6444 127.637 50.6299 127.636 50.6153 127.632C50.5176 127.608 50.4577 127.509 50.4818 127.412L51.0166 125.234C51.0405 125.136 51.14 125.076 51.237 125.1C51.3347 125.124 51.3946 125.223 51.3705 125.321L50.8357 127.499C50.8154 127.582 50.7408 127.637 50.6589 127.637Z" fill="white"/>
<path d="M48.7482 131.707C48.7343 131.707 48.72 131.705 48.706 131.702C48.6081 131.679 48.5473 131.581 48.5707 131.483L49.0866 129.305C49.1098 129.206 49.2079 129.145 49.306 129.169C49.4039 129.192 49.4646 129.291 49.4413 129.389L48.9253 131.567C48.9056 131.651 48.8308 131.707 48.7482 131.707Z" fill="white"/>
<path d="M51.1933 131.707C51.1115 131.707 51.0368 131.651 51.0166 131.568L50.4818 129.39C50.4577 129.292 50.5176 129.193 50.6153 129.17C50.7129 129.145 50.8118 129.205 50.8357 129.303L51.3705 131.481C51.3946 131.579 51.3347 131.678 51.237 131.702C51.2223 131.705 51.2077 131.707 51.1933 131.707Z" fill="white"/>
<path opacity="0.6" d="M54.1006 119.713C54.1006 120.288 53.635 120.753 53.0606 120.753H46.3898C45.8154 120.753 45.3497 120.288 45.3497 119.713V119.605C45.3497 119.031 45.8154 118.565 46.3898 118.565H53.0606C53.635 118.565 54.1006 119.031 54.1006 119.605V119.713Z" fill="white"/>
<g opacity="0.6">
<path d="M54.4652 134.982C54.4652 135.481 54.0612 135.885 53.5628 135.885H46.2522C45.7538 135.885 45.3497 135.481 45.3497 134.982V134.964C45.3497 134.466 45.7538 134.062 46.2522 134.062H53.5628C54.0612 134.062 54.4652 134.466 54.4652 134.964V134.982Z" fill="white"/>
<path d="M64.8568 134.982C64.8568 135.481 64.4528 135.885 63.9544 135.885H56.6438C56.1454 135.885 55.7413 135.481 55.7413 134.982V134.964C55.7413 134.466 56.1454 134.062 56.6438 134.062H63.9544C64.4528 134.062 64.8568 134.466 64.8568 134.964V134.982Z" fill="white"/>
<path d="M75.4308 134.982C75.4308 135.481 75.0267 135.885 74.5284 135.885H67.2177C66.7194 135.885 66.3153 135.481 66.3153 134.982V134.964C66.3153 134.466 66.7194 134.062 67.2177 134.062H74.5284C75.0267 134.062 75.4308 134.466 75.4308 134.964V134.982Z" fill="white"/>
<path d="M85.8224 134.982C85.8224 135.481 85.4183 135.885 84.92 135.885H77.6093C77.111 135.885 76.7069 135.481 76.7069 134.982V134.964C76.7069 134.466 77.111 134.062 77.6093 134.062H84.92C85.4183 134.062 85.8224 134.466 85.8224 134.964V134.982Z" fill="white"/>
</g>
<path opacity="0.49" d="M115.548 99.6904H92.9871C92.8191 99.6904 92.6829 99.5542 92.6829 99.3862V92.0748C92.6829 91.9067 92.8191 91.7705 92.9871 91.7705H115.548C115.716 91.7705 115.852 91.9067 115.852 92.0748V99.3862C115.852 99.5542 115.716 99.6904 115.548 99.6904Z" fill="white"/>
<path opacity="0.49" d="M115.575 105.423H92.9595C92.8067 105.423 92.6829 105.299 92.6829 105.146V102.528C92.6829 102.375 92.8067 102.251 92.9595 102.251H115.575C115.728 102.251 115.852 102.375 115.852 102.528V105.146C115.852 105.299 115.728 105.423 115.575 105.423Z" fill="white"/>
<path d="M112.357 91.8824C112.491 91.8952 112.599 92.0155 112.599 92.1512V92.6144C112.866 92.6443 113.134 92.6907 113.402 92.7537C113.599 92.8001 113.796 92.8554 113.99 92.9195C114.107 92.9579 114.187 93.0759 114.175 93.1975L114.118 93.7785C114.103 93.9326 113.951 94.0231 113.807 93.9592C113.679 93.9019 113.547 93.8528 113.412 93.812C113.177 93.7407 112.928 93.6943 112.667 93.6727L112.599 93.6671V94.9938C113.296 95.1889 113.808 95.4513 114.139 95.7814C114.468 96.1098 114.632 96.5193 114.632 97.0107C114.632 97.5422 114.451 97.9677 114.087 98.2887C113.72 98.6114 113.207 98.7929 112.543 98.8322V99.3435C112.543 99.4793 112.435 99.5851 112.301 99.5798L112.297 99.5796C112.163 99.5743 112.054 99.4595 112.054 99.3232V98.8189L111.946 98.814C111.635 98.8 111.337 98.7683 111.052 98.7187C110.841 98.682 110.635 98.6347 110.434 98.5766C110.313 98.5415 110.229 98.4257 110.24 98.3013L110.307 97.5546C110.322 97.3931 110.484 97.2992 110.637 97.3598C110.816 97.4303 110.997 97.4898 111.181 97.5381C111.467 97.6135 111.756 97.6618 112.05 97.6833L112.054 96.2075C111.385 96.0419 110.884 95.7966 110.555 95.4718C110.224 95.1454 110.058 94.7276 110.058 94.2197C110.058 93.6941 110.238 93.2883 110.596 93.0036C110.953 92.7203 111.46 92.5793 112.114 92.5797V92.1061C112.114 91.9698 112.223 91.8697 112.357 91.8824ZM112.114 93.6533C111.907 93.6684 111.746 93.7252 111.631 93.8238C111.515 93.9227 111.457 94.0554 111.457 94.2221C111.457 94.38 111.511 94.5119 111.618 94.6179C111.724 94.7236 111.89 94.8081 112.114 94.8712V93.6533ZM112.543 96.3257V97.679C112.768 97.6794 112.94 97.6258 113.061 97.5181C113.181 97.4106 113.241 97.2588 113.241 97.0625C113.241 96.8836 113.185 96.7352 113.073 96.6172C112.962 96.4989 112.785 96.4018 112.543 96.3257Z" fill="white"/>
<path opacity="0.49" d="M115.138 127.278H92.5775C92.4094 127.278 92.2732 127.142 92.2732 126.974V119.662C92.2732 119.494 92.4094 119.358 92.5775 119.358H115.138C115.306 119.358 115.442 119.494 115.442 119.662V126.974C115.442 127.142 115.306 127.278 115.138 127.278Z" fill="white"/>
<path opacity="0.49" d="M115.165 133.01H92.5498C92.3971 133.01 92.2732 132.886 92.2732 132.733V130.116C92.2732 129.963 92.3971 129.839 92.5498 129.839H115.165C115.318 129.839 115.442 129.963 115.442 130.116V132.733C115.442 132.886 115.318 133.01 115.165 133.01Z" fill="white"/>
<path d="M111.947 119.47C112.081 119.483 112.189 119.603 112.189 119.739V120.202C112.456 120.232 112.724 120.278 112.992 120.341C113.19 120.388 113.386 120.443 113.581 120.507C113.698 120.545 113.777 120.663 113.765 120.785L113.708 121.366C113.693 121.52 113.541 121.61 113.398 121.547C113.269 121.489 113.137 121.44 113.002 121.399C112.767 121.328 112.519 121.282 112.257 121.26L112.189 121.255V122.581C112.886 122.776 113.398 123.039 113.729 123.369C114.058 123.697 114.223 124.107 114.223 124.598C114.223 125.13 114.041 125.555 113.677 125.876C113.311 126.199 112.797 126.38 112.133 126.42V126.931C112.133 127.067 112.025 127.172 111.891 127.167L111.887 127.167C111.753 127.162 111.644 127.047 111.644 126.911V126.406L111.536 126.401C111.225 126.387 110.927 126.356 110.642 126.306C110.431 126.269 110.225 126.222 110.024 126.164C109.903 126.129 109.819 126.013 109.831 125.889L109.898 125.142C109.912 124.98 110.074 124.887 110.228 124.947C110.407 125.018 110.588 125.077 110.771 125.125C111.057 125.201 111.347 125.249 111.64 125.271L111.644 123.795C110.975 123.629 110.474 123.384 110.145 123.059C109.814 122.733 109.648 122.315 109.648 121.807C109.648 121.281 109.828 120.876 110.187 120.591C110.543 120.308 111.05 120.167 111.705 120.167V119.693C111.705 119.557 111.813 119.457 111.947 119.47ZM111.705 121.241C111.498 121.256 111.336 121.313 111.221 121.411C111.105 121.51 111.047 121.643 111.047 121.81C111.047 121.967 111.101 122.099 111.208 122.205C111.315 122.311 111.48 122.396 111.705 122.459V121.241ZM112.133 123.913V125.266C112.358 125.267 112.531 125.213 112.651 125.105C112.771 124.998 112.831 124.846 112.831 124.65C112.831 124.471 112.776 124.323 112.664 124.204C112.552 124.086 112.375 123.989 112.133 123.913Z" fill="white"/>
<g opacity="0.75">
<path d="M115.252 18.2393H110.945C110.866 18.2393 110.803 18.1758 110.803 18.0974V17.3856C110.803 17.3072 110.866 17.2437 110.945 17.2437H115.252C115.33 17.2437 115.394 17.3072 115.394 17.3856V18.0974C115.394 18.1758 115.33 18.2393 115.252 18.2393Z" fill="#BCD7B6"/>
<path d="M115.252 19.816H110.945C110.866 19.816 110.803 19.7524 110.803 19.6741V18.9623C110.803 18.8839 110.866 18.8203 110.945 18.8203H115.252C115.33 18.8203 115.394 18.8839 115.394 18.9623V19.6741C115.394 19.7524 115.33 19.816 115.252 19.816Z" fill="#BCD7B6"/>
<path d="M115.252 21.3092H110.945C110.866 21.3092 110.803 21.2456 110.803 21.1672V20.4554C110.803 20.377 110.866 20.3135 110.945 20.3135H115.252C115.33 20.3135 115.394 20.377 115.394 20.4554V21.1672C115.394 21.2456 115.33 21.3092 115.252 21.3092Z" fill="#BCD7B6"/>
</g>
<path d="M107.348 20.083H88.3719C88.2305 20.083 88.1158 19.9683 88.1158 19.8269V16.8308C88.1158 16.6894 88.2305 16.5747 88.3719 16.5747H107.348C107.49 16.5747 107.604 16.6894 107.604 16.8308V19.8269C107.604 19.9683 107.49 20.083 107.348 20.083Z" fill="#BCD7B6"/>
<path d="M84.3615 19.9199H65.3851C65.2437 19.9199 65.129 19.8052 65.129 19.6638V16.6677C65.129 16.5263 65.2437 16.4116 65.3851 16.4116H84.3615C84.5029 16.4116 84.6175 16.5263 84.6175 16.6677V19.6638C84.6175 19.8052 84.5029 19.9199 84.3615 19.9199Z" fill="#BCD7B6"/>
<path d="M61.3213 19.7568H42.3449C42.2035 19.7568 42.0889 19.6421 42.0889 19.5007V16.5046C42.0889 16.3632 42.2035 16.2485 42.3449 16.2485H61.3213C61.4627 16.2485 61.5774 16.3632 61.5774 16.5046V19.5007C61.5774 19.6422 61.4627 19.7568 61.3213 19.7568Z" fill="#BCD7B6"/>
<path d="M53.4736 73.7154H22.499C22.0498 73.7154 21.6855 73.3512 21.6855 72.902V53.7817C21.6855 53.3325 22.0498 52.9683 22.499 52.9683H53.4736C53.9228 52.9683 54.2871 53.3324 54.2871 53.7817V72.902C54.2871 73.3512 53.9229 73.7154 53.4736 73.7154Z" fill="url(#paint10_linear_51_407)"/>
<path d="M52.5332 73.0315H23.6368C23.1876 73.0315 22.8234 72.6673 22.8234 72.2181V54.4204C22.8234 53.9711 23.1875 53.6069 23.6368 53.6069H52.5332C52.9824 53.6069 53.3466 53.9711 53.3466 54.4204V72.2181C53.3466 72.6674 52.9824 73.0315 52.5332 73.0315Z" fill="#40916C"/>
<path d="M54.4652 57.4916V55.4113C54.4652 54.0495 53.3269 53.1162 52.0207 53.1162H24.1493C22.8432 53.1162 21.8319 54.0495 21.8319 55.4113V57.4916H54.4652Z" fill="url(#paint11_linear_51_407)"/>
<path d="M42.6768 59.1628C42.6768 58.9106 42.4923 58.7017 42.2339 58.6948L39.4959 58.6237C39.2344 58.6168 38.9086 58.8157 38.9086 59.0698V61.6344C38.9086 61.8885 39.247 62.1005 39.5085 62.1056L42.1708 62.1567C42.4292 62.1617 42.6768 61.9612 42.6768 61.709V59.1628Z" fill="white"/>
<path d="M47.4596 59.2853C47.4596 59.0355 47.2471 58.8281 46.9937 58.8214L44.4328 58.7546C44.1765 58.7478 43.9812 58.9477 43.9812 59.1993V61.7386C43.9812 61.9901 44.173 62.1969 44.4294 62.202L47.0016 62.2511C47.2551 62.2561 47.4596 62.0567 47.4596 61.8069V59.2853Z" fill="white"/>
<path d="M52.2425 59.4082C52.2425 59.1609 52.022 58.955 51.7736 58.9484L49.2351 58.88C48.9838 58.8734 48.764 59.0686 48.764 59.3176V61.8317C48.764 62.0808 48.9742 62.288 49.2256 62.2929L51.7704 62.3429C52.0189 62.3478 52.2425 62.152 52.2425 61.9047L52.2425 59.4082Z" fill="white"/>
<path d="M42.6768 63.8199C42.6768 63.5677 42.4923 63.3606 42.2339 63.3562L39.4959 63.3101C39.2344 63.3057 38.9086 63.5066 38.9086 63.7606V66.3252C38.9086 66.5792 39.247 66.7893 39.5085 66.7919L42.1708 66.818C42.4292 66.8205 42.6768 66.6183 42.6768 66.3661V63.8199Z" fill="white"/>
<path d="M47.4596 63.8974C47.4596 63.6476 47.2471 63.4419 46.9937 63.4376L44.4328 63.3951C44.1765 63.3907 43.9812 63.5924 43.9812 63.8439V66.3832C43.9812 66.6348 44.173 66.8398 44.4294 66.8423L47.0016 66.8673C47.2551 66.8698 47.4596 66.6688 47.4596 66.419V63.8974Z" fill="#065A34"/>
<path d="M52.2425 63.9748C52.2425 63.7275 52.022 63.5234 51.7736 63.5191L49.2351 63.4747C48.9838 63.4704 48.764 63.6673 48.764 63.9164V66.4305C48.764 66.6796 48.9742 66.885 49.2256 66.8874L51.7704 66.9135C52.0189 66.916 52.2425 66.7185 52.2425 66.4712L52.2425 63.9748Z" fill="white"/>
<path d="M27.7486 63.5837C27.7486 63.3237 27.5069 63.1076 27.2323 63.1029L24.4636 63.0538C24.1856 63.049 23.9803 63.2559 23.9803 63.5179V66.1621C23.9803 66.4241 24.1758 66.6396 24.4538 66.6424L27.2474 66.6718C27.522 66.6745 27.7487 66.4678 27.7487 66.2079V63.5837H27.7486Z" fill="white"/>
<path d="M32.8213 63.6616C32.8213 63.4043 32.6251 63.1929 32.356 63.1884L29.585 63.1412C29.3127 63.1366 29.053 63.3423 29.053 63.6016V66.2186C29.053 66.4779 29.3237 66.6913 29.596 66.694L32.3311 66.7208C32.6002 66.7235 32.8212 66.5168 32.8212 66.2594L32.8213 63.6616Z" fill="white"/>
<path d="M37.7491 63.7459C37.7491 63.4911 37.5489 63.279 37.2851 63.2746L34.5357 63.2266C34.2688 63.2221 33.9808 63.4241 33.9808 63.6808V66.2718C33.9808 66.5284 34.2754 66.7401 34.5423 66.7427L37.2461 66.7718C37.5098 66.7744 37.7491 66.5726 37.7491 66.3178L37.7491 63.7459Z" fill="white"/>
<path d="M42.6768 68.4772C42.6768 68.225 42.4923 68.0197 42.2339 68.0177L39.4959 67.9966C39.2344 67.9947 38.9086 68.1974 38.9086 68.4515V71.0161C38.9086 71.2701 39.247 71.4782 39.5085 71.4782L42.1708 71.4795C42.4292 71.4796 42.6768 71.2756 42.6768 71.0234V68.4772Z" fill="white"/>
<path d="M47.4596 68.5091C47.4596 68.2593 47.2471 68.0553 46.9937 68.0534L44.4328 68.0352C44.1765 68.0333 43.9812 68.2366 43.9812 68.4881V71.0274C43.9812 71.2789 44.173 71.4822 44.4294 71.4822L47.0016 71.4829C47.2551 71.483 47.4596 71.2803 47.4596 71.0306V68.5091Z" fill="white"/>
<path d="M27.7486 68.3834C27.7486 68.1234 27.5069 67.9097 27.2323 67.9076L24.4636 67.8853C24.1856 67.8832 23.9803 68.0923 23.9803 68.3542V70.9985C23.9803 71.2604 24.1758 71.4739 24.4538 71.4739L27.2474 71.4765C27.522 71.4766 27.7487 71.2675 27.7487 71.0076V68.3834H27.7486Z" fill="white"/>
<path d="M32.8213 68.4132C32.8213 68.1559 32.6251 67.9464 32.356 67.9444L29.585 67.9234C29.3127 67.9213 29.053 68.1291 29.053 68.3884V71.0054C29.053 71.2646 29.3237 71.476 29.596 71.476L32.3311 71.4768C32.6002 71.4769 32.8212 71.2683 32.8212 71.011L32.8213 68.4132Z" fill="white"/>
<path d="M37.7491 68.4505C37.7491 68.1957 37.5489 67.9856 37.2851 67.9836L34.5357 67.9614C34.2688 67.9594 33.9808 68.1636 33.9808 68.4203V71.0113C33.9808 71.2679 34.2754 71.4773 34.5423 71.4774L37.2461 71.481C37.5098 71.4811 37.7491 71.2772 37.7491 71.0224L37.7491 68.4505Z" fill="white"/>
<path d="M24.8534 39.9002C27.741 39.9002 30.0818 37.5593 30.0818 34.6718C30.0818 31.7842 27.741 29.4434 24.8534 29.4434C21.9658 29.4434 19.625 31.7842 19.625 34.6718C19.625 37.5593 21.9658 39.9002 24.8534 39.9002Z" fill="url(#paint12_linear_51_407)"/>
<path d="M24.8534 39.7264C27.645 39.7264 29.908 37.4634 29.908 34.6718C29.908 31.8802 27.645 29.6172 24.8534 29.6172C22.0619 29.6172 19.7988 31.8802 19.7988 34.6718C19.7988 37.4634 22.0619 39.7264 24.8534 39.7264Z" fill="url(#paint13_linear_51_407)"/>
<path opacity="0.7" d="M20.6853 32.7684C20.6556 32.7684 20.6254 32.7617 20.597 32.7474C20.5002 32.6986 20.4614 32.5805 20.5103 32.4836C21.3428 30.8343 23.0069 29.8096 24.8534 29.8096C25.1483 29.8096 25.4433 29.8361 25.7303 29.8884C25.837 29.9078 25.9078 30.0101 25.8883 30.1167C25.869 30.2234 25.767 30.2939 25.66 30.2747C25.3961 30.2266 25.1248 30.2022 24.8534 30.2022C23.156 30.2022 21.6261 31.1443 20.8607 32.6606C20.8262 32.729 20.7571 32.7684 20.6853 32.7684Z" fill="white"/>
<path opacity="0.78" d="M26.3772 38.8178C28.6063 38.0346 29.7783 35.5927 28.995 33.3636C28.2118 31.1346 25.7699 29.9626 23.5409 30.7459C21.3118 31.5291 20.1398 33.971 20.9231 36.2C21.7063 38.429 24.1482 39.6011 26.3772 38.8178Z" fill="white"/>
<path d="M24.5438 37.9626V37.4971C24.0586 37.4777 23.5787 37.3632 23.2378 37.214C23.1161 37.1607 23.0541 37.0241 23.089 36.8959L23.2073 36.4623C23.2507 36.3033 23.4236 36.221 23.5756 36.2847C23.9137 36.4265 24.3312 36.5387 24.7814 36.5387C25.2487 36.5387 25.5972 36.3802 25.5972 36.0554C25.5972 35.7624 25.3279 35.5881 24.6784 35.4139C23.7517 35.1604 23.0863 34.7564 23.0863 33.9406C23.0863 33.2039 23.6249 32.6415 24.5596 32.4911V32.0256C24.5596 31.8758 24.681 31.7544 24.8308 31.7544H25.1042C25.254 31.7544 25.3754 31.8758 25.3754 32.0256V32.4435C25.8244 32.4615 26.1512 32.5382 26.4105 32.6294C26.5434 32.6761 26.616 32.8192 26.5792 32.9552L26.4704 33.3561C26.4285 33.5107 26.2633 33.5954 26.1134 33.5388C25.8746 33.4485 25.537 33.3545 25.0982 33.3545C24.5436 33.3545 24.3853 33.5842 24.3853 33.7901C24.3853 34.0436 24.7179 34.2178 25.4387 34.4396C26.4684 34.7485 26.8962 35.1762 26.8962 35.9446C26.8962 36.6495 26.3734 37.2832 25.3596 37.4417V37.9625C25.3596 38.1123 25.2381 38.2337 25.0884 38.2337H24.8149C24.6653 38.2338 24.5438 38.1124 24.5438 37.9626Z" fill="url(#paint14_linear_51_407)"/>
<path d="M39.7364 37.5733C44.7632 37.5733 48.8382 33.4983 48.8382 28.4715C48.8382 23.4447 44.7632 19.3696 39.7364 19.3696C34.7095 19.3696 30.6345 23.4447 30.6345 28.4715C30.6345 33.4983 34.7095 37.5733 39.7364 37.5733Z" fill="url(#paint15_linear_51_407)"/>
<path d="M39.7364 37.2706C44.596 37.2706 48.5355 33.3311 48.5355 28.4715C48.5355 23.6119 44.596 19.6724 39.7364 19.6724C34.8768 19.6724 30.9373 23.6119 30.9373 28.4715C30.9373 33.3311 34.8768 37.2706 39.7364 37.2706Z" fill="url(#paint16_linear_51_407)"/>
<path opacity="0.7" d="M32.4805 25.0129C32.4508 25.0129 32.4205 25.0061 32.3922 24.9918C32.2954 24.943 32.2565 24.8249 32.3054 24.7281C33.73 21.9059 36.5774 20.1528 39.7364 20.1528C40.2402 20.1528 40.7452 20.1983 41.2369 20.2878C41.3436 20.3073 41.4144 20.4094 41.3949 20.5161C41.3756 20.6227 41.2736 20.6929 41.1666 20.6741C40.6979 20.5887 40.2168 20.5455 39.7364 20.5455C36.7263 20.5455 34.0133 22.216 32.656 24.9051C32.6214 24.9735 32.5523 25.0129 32.4805 25.0129Z" fill="white"/>
<path opacity="0.78" d="M39.9282 36.1107C44.0413 36.1107 47.3756 32.7764 47.3756 28.6633C47.3756 24.5502 44.0413 21.2158 39.9282 21.2158C35.815 21.2158 32.4807 24.5502 32.4807 28.6633C32.4807 32.7764 35.815 36.1107 39.9282 36.1107Z" fill="white"/>
<path d="M39.1973 34.1994V33.3892C38.3527 33.3554 37.5172 33.156 36.9238 32.8962C36.7119 32.8035 36.6039 32.5657 36.6648 32.3425L36.8706 31.5878C36.9462 31.311 37.2472 31.1678 37.5119 31.2787C38.1005 31.5255 38.8273 31.7207 39.611 31.7207C40.4245 31.7207 41.0313 31.4448 41.0313 30.8795C41.0313 30.3693 40.5625 30.066 39.4318 29.7627C37.8185 29.3214 36.6602 28.6181 36.6602 27.1979C36.6602 25.9155 37.5979 24.9365 39.2249 24.6745V23.8642C39.2249 23.6035 39.4363 23.3921 39.697 23.3921H40.1731C40.4339 23.3921 40.6452 23.6035 40.6452 23.8642V24.5917C41.4268 24.623 41.9957 24.7567 42.4472 24.9153C42.6785 24.9966 42.805 25.2458 42.7408 25.4824L42.5515 26.1804C42.4786 26.4496 42.1909 26.597 41.93 26.4984C41.5143 26.3412 40.9266 26.1775 40.1626 26.1775C39.1974 26.1775 38.9217 26.5773 38.9217 26.9359C38.9217 27.3771 39.5008 27.6804 40.7555 28.0666C42.5481 28.6043 43.2927 29.3489 43.2927 30.6865C43.2927 31.9137 42.3826 33.0168 40.6176 33.2926V34.1994C40.6176 34.4601 40.4063 34.6715 40.1456 34.6715H39.6694C39.4087 34.6716 39.1973 34.4602 39.1973 34.1994Z" fill="url(#paint17_linear_51_407)"/>
<path d="M46.0135 58.1664C51.186 58.1664 55.3792 53.9732 55.3792 48.8007C55.3792 43.6282 51.186 39.4351 46.0135 39.4351C40.841 39.4351 36.6478 43.6282 36.6478 48.8007C36.6478 53.9732 40.841 58.1664 46.0135 58.1664Z" fill="url(#paint18_linear_51_407)"/>
<path d="M46.0136 57.855C51.0141 57.855 55.0678 53.8013 55.0678 48.8008C55.0678 43.8003 51.0141 39.7466 46.0136 39.7466C41.0131 39.7466 36.9594 43.8003 36.9594 48.8008C36.9594 53.8013 41.0131 57.855 46.0136 57.855Z" fill="url(#paint19_linear_51_407)"/>
<path opacity="0.7" d="M38.5474 45.2361C38.5177 45.2361 38.4875 45.2294 38.4591 45.215C38.3623 45.1663 38.3234 45.0481 38.3723 44.9513C39.8372 42.0494 42.7651 40.2466 46.0136 40.2466C46.532 40.2466 47.0511 40.2933 47.5566 40.3853C47.6633 40.4047 47.734 40.5069 47.7147 40.6136C47.6953 40.7202 47.5936 40.7906 47.4863 40.7716C47.0039 40.6838 46.5084 40.6392 46.0136 40.6392C42.9142 40.6392 40.1205 42.3593 38.7228 45.1283C38.6882 45.1967 38.6191 45.2361 38.5474 45.2361Z" fill="white"/>
<path opacity="0.78" d="M51.6286 54.4168C54.6212 51.4241 54.6212 46.572 51.6286 43.5793C48.6359 40.5867 43.7838 40.5867 40.7911 43.5793C37.7985 46.572 37.7985 51.4241 40.7911 54.4168C43.7838 57.4094 48.6359 57.4094 51.6286 54.4168Z" fill="white"/>
<path d="M45.4588 54.6954V53.8616C44.5897 53.8268 43.73 53.6217 43.1194 53.3544C42.9014 53.2589 42.7903 53.0142 42.8529 52.7846L43.0647 52.008C43.1424 51.7231 43.4523 51.5758 43.7246 51.6899C44.3303 51.9438 45.0781 52.1447 45.8845 52.1447C46.7217 52.1447 47.3459 51.8609 47.3459 51.2791C47.3459 50.7542 46.8635 50.442 45.7 50.1299C44.04 49.6759 42.8481 48.9522 42.8481 47.4908C42.8481 46.1711 43.813 45.1638 45.4872 44.8943V44.0605C45.4872 43.7922 45.7047 43.5747 45.973 43.5747H46.4628C46.7311 43.5747 46.9486 43.7922 46.9486 44.0605V44.8091C47.7529 44.8413 48.3383 44.9788 48.8029 45.1421C49.0409 45.2257 49.171 45.4821 49.1049 45.7257L48.9102 46.4439C48.8351 46.7209 48.5391 46.8725 48.2707 46.7711C47.8429 46.6093 47.2381 46.4409 46.4521 46.4409C45.4588 46.4409 45.1751 46.8523 45.1751 47.2213C45.1751 47.6753 45.771 47.9874 47.0621 48.3848C48.9067 48.9382 49.6728 49.7043 49.6728 51.0806C49.6728 52.3434 48.7364 53.4785 46.9203 53.7624V54.6954C46.9203 54.9637 46.7027 55.1812 46.4345 55.1812H45.9446C45.6763 55.1811 45.4588 54.9636 45.4588 54.6954Z" fill="url(#paint20_linear_51_407)"/>
<path d="M58.0284 42.905C61.8183 42.905 64.8906 39.8327 64.8906 36.0428C64.8906 32.253 61.8183 29.1807 58.0284 29.1807C54.2386 29.1807 51.1663 32.253 51.1663 36.0428C51.1663 39.8327 54.2386 42.905 58.0284 42.905Z" fill="url(#paint21_linear_51_407)"/>
<path d="M58.0284 42.6766C61.6922 42.6766 64.6623 39.7065 64.6623 36.0427C64.6623 32.3788 61.6922 29.4087 58.0284 29.4087C54.3645 29.4087 51.3944 32.3788 51.3944 36.0427C51.3944 39.7065 54.3645 42.6766 58.0284 42.6766Z" fill="url(#paint22_linear_51_407)"/>
<path opacity="0.7" d="M52.558 33.4834C52.5283 33.4834 52.4981 33.4767 52.4697 33.4623C52.3729 33.4135 52.3341 33.2954 52.383 33.1986C53.4651 31.0546 55.6283 29.7227 58.0285 29.7227C58.4117 29.7227 58.7952 29.7572 59.1685 29.8252C59.2751 29.8447 59.3459 29.947 59.3264 30.0536C59.3068 30.1604 59.2055 30.2311 59.0979 30.2116C58.748 30.1478 58.3881 30.1153 58.0284 30.1153C55.7773 30.1153 53.7485 31.3646 52.7334 33.3756C52.6989 33.444 52.6298 33.4834 52.558 33.4834Z" fill="white"/>
<path opacity="0.78" d="M59.462 41.6448C62.4799 40.9322 64.3487 37.908 63.6361 34.8901C62.9235 31.8722 59.8993 30.0035 56.8815 30.7161C53.8636 31.4287 51.9948 34.4528 52.7074 37.4707C53.42 40.4886 56.4442 42.3574 59.462 41.6448Z" fill="white"/>
<path d="M57.622 40.3614V39.7505C56.9852 39.725 56.3553 39.5747 55.908 39.3789C55.7482 39.309 55.6668 39.1297 55.7127 38.9614L55.8679 38.3924C55.9248 38.1837 56.1518 38.0757 56.3514 38.1594C56.7951 38.3454 57.3431 38.4926 57.9339 38.4926C58.5473 38.4926 59.0047 38.2847 59.0047 37.8584C59.0047 37.4738 58.6513 37.2451 57.7988 37.0164C56.5825 36.6837 55.7093 36.1535 55.7093 35.0827C55.7093 34.1159 56.4162 33.3777 57.6429 33.1803V32.5693C57.6429 32.3728 57.8023 32.2134 57.9989 32.2134H58.3577C58.5543 32.2134 58.7137 32.3727 58.7137 32.5693V33.1179C59.303 33.1415 59.7318 33.2422 60.0723 33.3618C60.2467 33.4231 60.342 33.611 60.2936 33.7894L60.1509 34.3156C60.0958 34.5186 59.879 34.6297 59.6823 34.5554C59.3689 34.4369 58.9258 34.3135 58.3498 34.3135C57.6221 34.3135 57.4142 34.6149 57.4142 34.8852C57.4142 35.2179 57.8508 35.4466 58.7968 35.7377C60.1483 36.1431 60.7096 36.7045 60.7096 37.713C60.7096 38.6382 60.0235 39.4699 58.6929 39.6778V40.3614C58.6929 40.558 58.5335 40.7174 58.337 40.7174H57.978C57.7814 40.7173 57.622 40.5579 57.622 40.3614Z" fill="url(#paint23_linear_51_407)"/>
<path d="M102.312 58.5624C102.23 58.8215 103.174 59.2162 103.73 58.1562C103.75 57.6481 104.059 55.4716 103.755 55.0578C102.138 52.8535 99.0037 50.0903 99.0037 50.0903C98.4739 50.6131 98.9104 51.1266 98.9104 51.1266L100.431 52.7107C100.113 53.2855 99.725 53.7707 99.5432 54.4659C99.4054 54.9924 99.4897 55.5551 99.7556 56.0343C100.023 56.5151 100.387 57.1403 100.731 57.6295C101.383 58.5554 102.312 58.5624 102.312 58.5624Z" fill="url(#paint24_linear_51_407)"/>
<path d="M101.096 53.7388L102.482 54.9135L102.917 56.0831L101.681 57.4538C101.681 57.4538 101.266 55.1331 100.957 54.6307C100.649 54.1285 100.809 53.8856 101.096 53.7388Z" fill="url(#paint25_linear_51_407)"/>
<path d="M129.532 145.076C129.532 145.076 129.882 147.058 130.054 149.02C130.121 149.786 129.53 150.452 128.761 150.484C126.148 150.593 120.56 150.804 118.554 150.715C118.253 150.701 118.056 150.393 118.167 150.112C118.261 149.877 118.441 149.687 118.671 149.582L127.902 145.339L129.532 145.076Z" fill="url(#paint26_linear_51_407)"/>
<path d="M129.819 143.911L129.538 146.282C129.538 146.282 127.921 147.034 126.816 146.187L127.486 143.545L129.819 143.911Z" fill="url(#paint27_linear_51_407)"/>
<path d="M129.608 99.3426C129.729 99.9616 130.26 130.236 127.024 143.803C126.971 144.024 127.083 144.252 127.294 144.339C127.79 144.541 128.763 144.835 129.929 144.874C130.29 144.886 130.614 144.652 130.716 144.305C131.641 141.157 136.074 125.386 136.652 110.321C137.298 93.4861 136.652 109.747 136.652 109.747L136.273 99.3413L129.608 99.3426Z" fill="url(#paint28_linear_51_407)"/>
<path d="M140.151 146.11C140.151 146.11 140.708 147.11 141.248 149.769C141.345 150.249 141.01 150.709 140.522 150.757C139.66 150.842 138.331 150.951 137.268 150.943C136.777 150.94 136.395 150.513 136.454 150.026C136.571 149.056 136.939 147.463 138.073 146.223L140.151 146.11Z" fill="url(#paint29_linear_51_407)"/>
<path d="M140.641 143.061L139.983 146.646C139.983 146.646 139.334 147.129 138.048 146.779L138.362 142.921L140.641 143.061Z" fill="url(#paint30_linear_51_407)"/>
<path d="M142.416 100.272C145.063 116.245 141.842 139.75 140.756 144.351C140.689 144.633 140.462 144.848 140.176 144.896C139.692 144.976 138.893 145.042 138.106 144.813C137.835 144.734 137.645 144.49 137.634 144.208C137.488 140.488 137.75 117.654 135.284 108.63C135.159 108.173 134.88 107.774 134.493 107.499L129.707 104.097L129.34 98.5962L142.416 100.272Z" fill="url(#paint31_linear_51_407)"/>
<path d="M125.551 70.0061C133.483 69.8751 142.235 72.0887 142.235 72.0887C144.599 85.884 142.648 101.796 142.648 101.796C136.508 103.406 129.581 100.812 129.581 100.812C128.56 95.0454 123.798 78.8176 123.798 78.8176C119.923 78.3366 116.731 77.2185 114.102 75.7403C116.107 73.4158 117.052 70.4579 117.463 68.7095C120.267 69.581 123.105 70.0465 125.551 70.0061Z" fill="url(#paint32_linear_51_407)"/>
<path d="M102.123 58.3233C102.902 57.3822 103.888 57.8274 103.888 57.8274C105.055 62.7578 111.175 66.7555 117.463 68.7096C117.052 70.458 116.107 73.4158 114.101 75.7404C103.667 69.8733 102.123 58.3233 102.123 58.3233Z" fill="url(#paint33_linear_51_407)"/>
<path d="M139.192 79.7685L142.235 72.0884C142.235 72.0884 149.643 77.1222 150.862 83.5046C149.462 83.6076 146.915 83.9718 144.421 85.2308C143.873 82.2171 139.192 79.7685 139.192 79.7685Z" fill="url(#paint34_linear_51_407)"/>
<path d="M133.585 63.5669L136.109 70.8654C136.151 70.9862 136.101 71.1202 135.989 71.1821C135.301 71.5625 132.823 72.6619 129.836 70.7681C129.525 70.5709 129.313 70.2492 129.266 69.8837L128.449 63.5669L133.585 63.5669Z" fill="url(#paint35_linear_51_407)"/>
<path d="M128.094 56.8081C128.094 56.8081 125.323 62.0248 125.678 64.1321C126.033 66.2393 129.468 66.0881 132.467 64.3766L134.563 58.7437L128.094 56.8081Z" fill="url(#paint36_linear_51_407)"/>
<path d="M132.335 61.6104C132.213 61.5564 132.168 61.4072 132.241 61.2957C132.463 60.9565 132.879 60.2646 133.012 59.6587C133.012 59.6587 133.51 59.3396 131.744 58.9169C129.978 58.4941 127.344 57.8379 126.79 56.3346C126.25 54.8688 127.669 51.1827 129.931 54.1198C130.017 54.2315 130.186 54.2339 130.272 54.1221C130.643 53.6393 131.618 52.6373 132.972 53.2448C134.239 53.8133 134.381 54.7416 134.364 55.2097C134.359 55.3472 134.482 55.4543 134.617 55.4285C135.258 55.3063 136.795 55.2014 137.512 56.7783C138.103 58.0772 137.719 58.8124 137.37 59.172C137.256 59.2885 137.306 59.4804 137.461 59.5279C137.882 59.6568 138.426 60.0138 138.372 61.0001C138.296 62.3637 136.772 62.2435 136.338 62.1814C136.267 62.1712 136.195 62.1957 136.147 62.2489C135.775 62.6608 134.098 64.4096 132.283 64.6204C132.126 64.6386 132.004 64.4834 132.055 64.3339L132.841 62.0508C132.877 61.9448 132.827 61.8285 132.724 61.783L132.335 61.6104Z" fill="url(#paint37_linear_51_407)"/>
<path d="M132.019 61.9346C132.019 61.9346 133.992 60.5807 134.136 61.7208C134.28 62.8609 132.359 63.3722 131.408 62.9472L132.019 61.9346Z" fill="url(#paint38_linear_51_407)"/>
<path d="M144.421 85.2309C144.421 85.2309 147.011 96.9129 144.665 103.48C147.541 104.814 147.009 104.562 147.009 104.562C147.009 104.562 152.698 87.9408 150.862 83.5047C147.241 83.1206 145.444 84.0936 144.421 85.2309Z" fill="url(#paint39_linear_51_407)"/>
<path d="M144.665 103.481C144.665 103.481 143.183 105.398 143.302 106.162C143.42 106.926 143.449 107.237 143.449 107.237C143.449 107.237 144.193 106.728 144.146 106.077C144.043 108.143 143.351 110.491 143.98 110.378C144.609 110.265 147.862 107.266 147.127 104.069C145.457 102.909 144.989 103.035 144.665 103.481Z" fill="url(#paint40_linear_51_407)"/>
<defs>
<linearGradient id="paint0_linear_51_407" x1="164.249" y1="172.789" x2="58.9673" y2="60.7149" gradientUnits="userSpaceOnUse">
<stop stop-color="#BCD7B6"/>
<stop offset="1" stop-color="#E9EFFD"/>
</linearGradient>
<linearGradient id="paint1_linear_51_407" x1="39.1248" y1="-24.8793" x2="137.304" y2="212.958" gradientUnits="userSpaceOnUse">
<stop offset="1"/>
</linearGradient>
<linearGradient id="paint2_linear_51_407" x1="16.6806" y1="15.8874" x2="118.953" y2="110.711" gradientUnits="userSpaceOnUse">
<stop offset="0.55" stop-color="#BCD7B6"/>
</linearGradient>
<linearGradient id="paint3_linear_51_407" x1="83.6552" y1="-50.7982" x2="78.9153" y2="43.6377" gradientUnits="userSpaceOnUse">
<stop offset="1" stop-color="#7D4F2E"/>
</linearGradient>
<linearGradient id="paint4_linear_51_407" x1="126.924" y1="-56.0854" x2="110.152" y2="1.88876" gradientUnits="userSpaceOnUse">
<stop offset="1" stop-color="#FF6D50"/>
</linearGradient>
<linearGradient id="paint5_linear_51_407" x1="101.294" y1="-63.5007" x2="84.5212" y2="-5.52651" gradientUnits="userSpaceOnUse">
<stop stop-color="#E1473D"/>
<stop offset="1" stop-color="#F99C4D"/>
</linearGradient>
<linearGradient id="paint6_linear_51_407" x1="91.4419" y1="21.4207" x2="82.3265" y2="36.1877" gradientUnits="userSpaceOnUse">
<stop offset="1" stop-color="#29E100"/>
</linearGradient>
<linearGradient id="paint7_linear_51_407" x1="83.5429" y1="91.0475" x2="76.9798" y2="111.831" gradientUnits="userSpaceOnUse">
<stop offset="1" stop-color="#40916C"/>
</linearGradient>
<linearGradient id="paint8_linear_51_407" x1="67.9999" y1="93.6927" x2="48.0718" y2="101.276" gradientUnits="userSpaceOnUse">
<stop stop-color="#FF928E"/>
<stop offset="1" stop-color="#FE7062"/>
</linearGradient>
<linearGradient id="paint9_linear_51_407" x1="67.8176" y1="121.768" x2="47.8895" y2="129.351" gradientUnits="userSpaceOnUse">
<stop stop-color="#FF928E"/>
<stop offset="1" stop-color="#FE7062"/>
</linearGradient>
<linearGradient id="paint10_linear_51_407" x1="37.089" y1="74.8549" x2="38.8836" y2="51.8287" gradientUnits="userSpaceOnUse">
<stop offset="1" stop-color="#40916C"/>
</linearGradient>
<linearGradient id="paint11_linear_51_407" x1="38.1485" y1="38.5315" x2="38.1485" y2="85.2026" gradientUnits="userSpaceOnUse">
<stop offset="1" stop-color="#5E4B25"/>
</linearGradient>
<linearGradient id="paint12_linear_51_407" x1="56.9659" y1="-76.3256" x2="40.1935" y2="-18.3514" gradientUnits="userSpaceOnUse">
<stop offset="1" stop-color="#BCD7B6"/>
</linearGradient>
<linearGradient id="paint13_linear_51_407" x1="25.5541" y1="29.4332" x2="23.6399" y2="43.7444" gradientUnits="userSpaceOnUse">
<stop offset="1" stop-color="#BCD7B6"/>
</linearGradient>
<linearGradient id="paint14_linear_51_407" x1="57.1647" y1="-76.2675" x2="40.3923" y2="-18.2933" gradientUnits="userSpaceOnUse">
<stop offset="1" stop-color="#40916C"/>
</linearGradient>
<linearGradient id="paint15_linear_51_407" x1="69.0441" y1="-72.8312" x2="52.2716" y2="-14.8569" gradientUnits="userSpaceOnUse">
<stop offset="1" stop-color="#40916C"/>
</linearGradient>
<linearGradient id="paint16_linear_51_407" x1="41.6005" y1="19.3803" x2="35.6755" y2="48.2762" gradientUnits="userSpaceOnUse">
<stop offset="1" stop-color="#BCD7B6"/>
</linearGradient>
<linearGradient id="paint17_linear_51_407" x1="69.3901" y1="-72.7313" x2="52.6177" y2="-14.757" gradientUnits="userSpaceOnUse">
<stop offset="1" stop-color="#40916C"/>
</linearGradient>
<linearGradient id="paint18_linear_51_407" x1="67.2488" y1="29.278" x2="61.5972" y2="34.4738" gradientUnits="userSpaceOnUse">
<stop offset="1" stop-color="#40916C"/>
</linearGradient>
<linearGradient id="paint19_linear_51_407" x1="48.2384" y1="39.7583" x2="42.5868" y2="62.7291" gradientUnits="userSpaceOnUse">
<stop offset="1" stop-color="#BCD7B6"/>
</linearGradient>
<linearGradient id="paint20_linear_51_407" x1="80.6197" y1="-69.4821" x2="63.8473" y2="-11.5078" gradientUnits="userSpaceOnUse">
<stop offset="1" stop-color="#40916C"/>
</linearGradient>
<linearGradient id="paint21_linear_51_407" x1="87.9447" y1="-67.3632" x2="71.1723" y2="-9.38902" gradientUnits="userSpaceOnUse">
<stop offset="1" stop-color="#40916C"/>
</linearGradient>
<linearGradient id="paint22_linear_51_407" x1="58.6852" y1="32.1793" x2="55.5859" y2="50.4102" gradientUnits="userSpaceOnUse">
<stop offset="1" stop-color="#BCD7B6"/>
</linearGradient>
<linearGradient id="paint23_linear_51_407" x1="88.2057" y1="-67.288" x2="71.4332" y2="-9.31374" gradientUnits="userSpaceOnUse">
<stop offset="1" stop-color="#40916C"/>
</linearGradient>
<linearGradient id="paint24_linear_51_407" x1="1.06812" y1="-35.8827" x2="-28.2229" y2="-62.4999" gradientUnits="userSpaceOnUse">
<stop stop-color="#FEBBBA"/>
<stop offset="1" stop-color="#FF928E"/>
</linearGradient>
<linearGradient id="paint25_linear_51_407" x1="104.03" y1="60.1139" x2="100.039" y2="52.0638" gradientUnits="userSpaceOnUse">
<stop stop-color="#FEBBBA"/>
<stop offset="1" stop-color="#FF928E"/>
</linearGradient>
<linearGradient id="paint26_linear_51_407" x1="118.846" y1="142.337" x2="152.651" y2="179.107" gradientUnits="userSpaceOnUse">
<stop offset="1"/>
</linearGradient>
<linearGradient id="paint27_linear_51_407" x1="129.819" y1="145.067" x2="126.816" y2="145.067" gradientUnits="userSpaceOnUse">
<stop stop-color="#FEBBBA"/>
<stop offset="1" stop-color="#FF928E"/>
</linearGradient>
<linearGradient id="paint28_linear_51_407" x1="116.185" y1="100.754" x2="144.949" y2="139.74" gradientUnits="userSpaceOnUse">
<stop offset="0.645"/>
</linearGradient>
<linearGradient id="paint29_linear_51_407" x1="126.43" y1="135.365" x2="160.235" y2="172.135" gradientUnits="userSpaceOnUse">
<stop offset="0.505"/>
</linearGradient>
<linearGradient id="paint30_linear_51_407" x1="140.641" y1="144.914" x2="138.048" y2="144.914" gradientUnits="userSpaceOnUse">
<stop stop-color="#FEBBBA"/>
<stop offset="1" stop-color="#FF928E"/>
</linearGradient>
<linearGradient id="paint31_linear_51_407" x1="121.311" y1="96.9714" x2="150.076" y2="135.958" gradientUnits="userSpaceOnUse">
<stop offset="0.545"/>
</linearGradient>
<linearGradient id="paint32_linear_51_407" x1="166.933" y1="-44.5104" x2="150.161" y2="13.4637" gradientUnits="userSpaceOnUse">
<stop stop-color="#BCD7B6"/>
<stop offset="1" stop-color="#89B38E"/>
</linearGradient>
<linearGradient id="paint33_linear_51_407" x1="-1.04917" y1="-33.5521" x2="-30.3401" y2="-60.1693" gradientUnits="userSpaceOnUse">
<stop stop-color="#FEBBBA"/>
<stop offset="1" stop-color="#FF928E"/>
</linearGradient>
<linearGradient id="paint34_linear_51_407" x1="180.396" y1="-40.616" x2="163.623" y2="17.3582" gradientUnits="userSpaceOnUse">
<stop stop-color="#FF928E"/>
<stop offset="1" stop-color="#89B38E"/>
</linearGradient>
<linearGradient id="paint35_linear_51_407" x1="136.124" y1="67.7064" x2="128.449" y2="67.7064" gradientUnits="userSpaceOnUse">
<stop stop-color="#FEBBBA"/>
<stop offset="1" stop-color="#FF928E"/>
</linearGradient>
<linearGradient id="paint36_linear_51_407" x1="126.623" y1="62.8233" x2="135.062" y2="57.6761" gradientUnits="userSpaceOnUse">
<stop stop-color="#FEBBBA"/>
<stop offset="1" stop-color="#FF928E"/>
</linearGradient>
<linearGradient id="paint37_linear_51_407" x1="139.529" y1="52.2504" x2="128.627" y2="60.8613" gradientUnits="userSpaceOnUse">
<stop stop-color="#09005D"/>
<stop offset="1" stop-color="#1A0F91"/>
</linearGradient>
<linearGradient id="paint38_linear_51_407" x1="128.84" y1="64.743" x2="136.432" y2="60.112" gradientUnits="userSpaceOnUse">
<stop stop-color="#FEBBBA"/>
<stop offset="1" stop-color="#FF928E"/>
</linearGradient>
<linearGradient id="paint39_linear_51_407" x1="142.551" y1="124.141" x2="148.791" y2="79.3268" gradientUnits="userSpaceOnUse">
<stop stop-color="#FEBBBA"/>
<stop offset="1" stop-color="#FF928E"/>
</linearGradient>
<linearGradient id="paint40_linear_51_407" x1="143.294" y1="119.83" x2="148.273" y2="84.0685" gradientUnits="userSpaceOnUse">
<stop stop-color="#FEBBBA"/>
<stop offset="1" stop-color="#FF928E"/>
</linearGradient>
</defs>
</svg>
